RedHatDisplayVF-LightItalic.ufo
<glyph name="dollar" format="2">
  <advance width="540"/>
  <unicode hex="0024"/>
  <outline>
    <contour>
      <point x="180" y="-67" type="line"/>
      <point x="222" y="-67" type="line"/>
      <point x="240" y="18" type="line"/>
      <point x="258" y="17" type="line"/>
      <point x="401" y="17"/>
      <point x="501" y="97"/>
      <point x="501" y="212" type="curve" smooth="yes"/>
      <point x="501" y="291"/>
      <point x="455" y="330"/>
      <point x="331" y="367" type="curve" smooth="yes"/>
      <point x="316" y="371" type="line"/>
      <point x="372" y="635" type="line"/>
      <point x="429" y="625"/>
      <point x="485" y="596"/>
      <point x="535" y="551" type="curve"/>
      <point x="565" y="583" type="line"/>
      <point x="510" y="631"/>
      <point x="445" y="664"/>
      <point x="381" y="676" type="curve"/>
      <point x="400" y="767" type="line"/>
      <point x="358" y="767" type="line"/>
      <point x="340" y="681" type="line"/>
      <point x="322" y="682" type="line"/>
      <point x="187" y="682"/>
      <point x="95" y="610"/>
      <point x="95" y="502" type="curve" smooth="yes"/>
      <point x="95" y="425"/>
      <point x="141" y="378"/>
      <point x="241" y="348" type="curve" smooth="yes"/>
      <point x="267" y="340" type="line"/>
      <point x="208" y="64" type="line"/>
      <point x="142" y="76"/>
      <point x="85" y="114"/>
      <point x="43" y="175" type="curve"/>
      <point x="7" y="151" type="line"/>
      <point x="54" y="82"/>
      <point x="122" y="38"/>
      <point x="199" y="23" type="curve"/>
    </contour>
    <contour>
      <point x="276" y="381" type="line"/>
      <point x="253" y="388" type="line" smooth="yes"/>
      <point x="171" y="413"/>
      <point x="139" y="445"/>
      <point x="139" y="502" type="curve" smooth="yes"/>
      <point x="139" y="585"/>
      <point x="210" y="640"/>
      <point x="322" y="640" type="curve" smooth="yes"/>
      <point x="331" y="640" type="line"/>
    </contour>
    <contour>
      <point x="249" y="59" type="curve"/>
      <point x="307" y="331" type="line"/>
      <point x="420" y="297"/>
      <point x="457" y="272"/>
      <point x="457" y="212" type="curve" smooth="yes"/>
      <point x="457" y="112"/>
      <point x="368" y="59"/>
    </contour>
  </outline>
</glyph>
<glyph name="parenleft" format="2">
  <advance width="371"/>
  <unicode hex="0028"/>
  <guideline x="364" y="307" angle="78.0" identifier="loviQ7lNES"/>
  <outline>
    <contour>
      <point x="211" y="-221" type="curve"/>
      <point x="240" y="-184" type="line"/>
      <point x="153" y="-112"/>
      <point x="101" y="21"/>
      <point x="101" y="174" type="curve" smooth="yes"/>
      <point x="101" y="393"/>
      <point x="234" y="600"/>
      <point x="420" y="671" type="curve"/>
      <point x="406" y="715" type="line"/>
      <point x="194" y="628"/>
      <point x="55" y="413"/>
      <point x="55" y="174" type="curve" smooth="yes"/>
      <point x="55" y="13"/>
      <point x="113" y="-133"/>
    </contour>
  </outline>
</glyph>
<glyph name="asterisk" format="2">
  <advance width="425"/>
  <unicode hex="002A"/>
  <outline>
    <contour>
      <point x="216" y="352" type="line"/>
      <point x="253" y="352" type="line"/>
      <point x="283" y="500" type="line"/>
      <point x="390" y="416" type="line"/>
      <point x="412" y="444" type="line"/>
      <point x="305" y="527" type="line"/>
      <point x="443" y="594" type="line"/>
      <point x="427" y="626" type="line"/>
      <point x="296" y="563" type="line"/>
      <point x="327" y="700" type="line"/>
      <point x="290" y="700" type="line"/>
      <point x="262" y="561" type="line"/>
      <point x="157" y="643" type="line"/>
      <point x="135" y="615" type="line"/>
      <point x="238" y="535" type="line"/>
      <point x="97" y="464" type="line"/>
      <point x="113" y="432" type="line"/>
      <point x="249" y="500" type="line"/>
    </contour>
  </outline>
</glyph>
<glyph name="plus" format="2">
  <advance width="600"/>
  <unicode hex="002B"/>
  <outline>
    <contour>
      <point x="260" y="152" type="line"/>
      <point x="301" y="152" type="line"/>
      <point x="340" y="337" type="line"/>
      <point x="508" y="337" type="line"/>
      <point x="517" y="378" type="line"/>
      <point x="349" y="378" type="line"/>
      <point x="387" y="560" type="line"/>
      <point x="346" y="560" type="line"/>
      <point x="308" y="378" type="line"/>
      <point x="140" y="378" type="line"/>
      <point x="131" y="337" type="line"/>
      <point x="299" y="337" type="line"/>
    </contour>
  </outline>
</glyph>
<glyph name="period" format="2">
  <advance width="250"/>
  <unicode hex="002E"/>
  <outline>
    <contour>
      <point x="76" y="-5" type="curve" smooth="yes"/>
      <point x="99" y="-5"/>
      <point x="117" y="13"/>
      <point x="117" y="37" type="curve" smooth="yes"/>
      <point x="117" y="56"/>
      <point x="102" y="71"/>
      <point x="84" y="71" type="curve" smooth="yes"/>
      <point x="61" y="71"/>
      <point x="43" y="53"/>
      <point x="43" y="30" type="curve" smooth="yes"/>
      <point x="43" y="10"/>
      <point x="58" y="-5"/>
    </contour>
  </outline>
</glyph>
<glyph name="slash" format="2">
  <advance width="425"/>
  <unicode hex="002F"/>
  <outline>
    <contour>
      <point x="-161" y="-204" type="line"/>
      <point x="-111" y="-204" type="line"/>
      <point x="490" y="700" type="line"/>
      <point x="440" y="700" type="line"/>
    </contour>
  </outline>
</glyph>
<glyph name="nine" format="2">
  <advance width="611"/>
  <unicode hex="0039"/>
  <outline>
    <contour>
      <point x="359" y="711" type="curve" smooth="yes"/>
      <point x="218" y="711"/>
      <point x="103" y="603"/>
      <point x="103" y="470" type="curve" smooth="yes"/>
      <point x="103" y="351"/>
      <point x="196" y="261"/>
      <point x="318" y="261" type="curve" smooth="yes"/>
      <point x="391" y="261"/>
      <point x="471" y="292"/>
      <point x="531" y="342" type="curve"/>
      <point x="494" y="162"/>
      <point x="366" y="31"/>
      <point x="214" y="31" type="curve" smooth="yes"/>
      <point x="171" y="31"/>
      <point x="118" y="48"/>
      <point x="75" y="75" type="curve"/>
      <point x="47" y="37" type="line"/>
      <point x="99" y="5"/>
      <point x="155" y="-11"/>
      <point x="210" y="-11" type="curve" smooth="yes"/>
      <point x="419" y="-11"/>
      <point x="587" y="192"/>
      <point x="587" y="446" type="curve" smooth="yes"/>
      <point x="587" y="605"/>
      <point x="496" y="711"/>
    </contour>
    <contour>
      <point x="356" y="669" type="curve" smooth="yes"/>
      <point x="486" y="669"/>
      <point x="559" y="559"/>
      <point x="539" y="395" type="curve"/>
      <point x="479" y="338"/>
      <point x="400" y="303"/>
      <point x="327" y="303" type="curve" smooth="yes"/>
      <point x="223" y="303"/>
      <point x="148" y="372"/>
      <point x="148" y="469" type="curve" smooth="yes"/>
      <point x="148" y="578"/>
      <point x="242" y="669"/>
    </contour>
  </outline>
</glyph>
<glyph name="at" format="2">
  <advance width="771"/>
  <unicode hex="0040"/>
  <outline>
    <contour>
      <point x="399" y="-144" type="curve" smooth="yes"/>
      <point x="468" y="-144"/>
      <point x="535" y="-128"/>
      <point x="591" y="-98" type="curve"/>
      <point x="576" y="-64" type="line"/>
      <point x="526" y="-92"/>
      <point x="465" y="-107"/>
      <point x="403" y="-107" type="curve" smooth="yes"/>
      <point x="221" y="-107"/>
      <point x="85" y="28"/>
      <point x="85" y="208" type="curve" smooth="yes"/>
      <point x="85" y="392"/>
      <point x="221" y="537"/>
      <point x="393" y="537" type="curve"/>
      <point x="559" y="537"/>
      <point x="685" y="420"/>
      <point x="685" y="266" type="curve" smooth="yes"/>
      <point x="685" y="165"/>
      <point x="627" y="93"/>
      <point x="557" y="93" type="curve" smooth="yes"/>
      <point x="507" y="93"/>
      <point x="484" y="122"/>
      <point x="496" y="176" type="curve" smooth="yes"/>
      <point x="533" y="362" type="line"/>
      <point x="494" y="362" type="line"/>
      <point x="488" y="332" type="line"/>
      <point x="464" y="359"/>
      <point x="425" y="376"/>
      <point x="383" y="376" type="curve" smooth="yes"/>
      <point x="291" y="376"/>
      <point x="216" y="298"/>
      <point x="216" y="202" type="curve" smooth="yes"/>
      <point x="216" y="116"/>
      <point x="277" y="52"/>
      <point x="359" y="52" type="curve" smooth="yes"/>
      <point x="394" y="52"/>
      <point x="432" y="68"/>
      <point x="467" y="100" type="curve"/>
      <point x="483" y="73"/>
      <point x="513" y="58"/>
      <point x="554" y="58" type="curve" smooth="yes"/>
      <point x="646" y="58"/>
      <point x="725" y="141"/>
      <point x="725" y="265" type="curve" smooth="yes"/>
      <point x="725" y="441"/>
      <point x="583" y="574"/>
      <point x="395" y="574" type="curve"/>
      <point x="195" y="574"/>
      <point x="45" y="416"/>
      <point x="45" y="207" type="curve" smooth="yes"/>
      <point x="45" y="7"/>
      <point x="198" y="-144"/>
    </contour>
    <contour>
      <point x="366" y="87" type="curve" smooth="yes"/>
      <point x="301" y="87"/>
      <point x="256" y="135"/>
      <point x="256" y="204" type="curve" smooth="yes"/>
      <point x="256" y="279"/>
      <point x="311" y="341"/>
      <point x="379" y="341" type="curve" smooth="yes"/>
      <point x="422" y="341"/>
      <point x="460" y="320"/>
      <point x="479" y="288" type="curve"/>
      <point x="457" y="178" type="line" smooth="yes"/>
      <point x="453" y="160"/>
      <point x="453" y="144"/>
      <point x="456" y="129" type="curve"/>
      <point x="432" y="102"/>
      <point x="400" y="87"/>
    </contour>
  </outline>
</glyph>
<glyph name="B" format="2">
  <advance width="628"/>
  <unicode hex="0042"/>
  <outline>
    <contour>
      <point x="29" y="0" type="line"/>
      <point x="316" y="0" type="line" smooth="yes"/>
      <point x="468" y="0"/>
      <point x="571" y="88"/>
      <point x="571" y="218" type="curve" smooth="yes"/>
      <point x="571" y="290"/>
      <point x="526" y="342"/>
      <point x="447" y="363" type="curve"/>
      <point x="547" y="385"/>
      <point x="608" y="452"/>
      <point x="608" y="545" type="curve" smooth="yes"/>
      <point x="608" y="640"/>
      <point x="533" y="700"/>
      <point x="415" y="700" type="curve" smooth="yes"/>
      <point x="178" y="700" type="line"/>
    </contour>
    <contour>
      <point x="156" y="387" type="line"/>
      <point x="214" y="657" type="line"/>
      <point x="415" y="657" type="line" smooth="yes"/>
      <point x="507" y="657"/>
      <point x="563" y="613"/>
      <point x="563" y="542" type="curve" smooth="yes"/>
      <point x="563" y="450"/>
      <point x="487" y="387"/>
      <point x="376" y="387" type="curve" smooth="yes"/>
    </contour>
    <contour>
      <point x="83" y="43" type="line"/>
      <point x="147" y="344" type="line"/>
      <point x="359" y="344" type="line" smooth="yes"/>
      <point x="462" y="344"/>
      <point x="525" y="295"/>
      <point x="525" y="216" type="curve" smooth="yes"/>
      <point x="525" y="113"/>
      <point x="440" y="43"/>
      <point x="316" y="43" type="curve" smooth="yes"/>
    </contour>
  </outline>
</glyph>
<glyph name="C" format="2">
  <advance width="710"/>
  <unicode hex="0043"/>
  <anchor x="452" y="700" name="top"/>
  <anchor x="396" y="0" name="bottom"/>
  <outline>
    <contour>
      <point x="394" y="-11" type="curve" smooth="yes"/>
      <point x="492" y="-11"/>
      <point x="591" y="25"/>
      <point x="664" y="89" type="curve"/>
      <point x="636" y="123" type="line"/>
      <point x="569" y="64"/>
      <point x="483" y="32"/>
      <point x="397" y="32" type="curve" smooth="yes"/>
      <point x="226" y="32"/>
      <point x="115" y="166"/>
      <point x="115" y="322" type="curve" smooth="yes"/>
      <point x="115" y="509"/>
      <point x="260" y="668"/>
      <point x="441" y="668" type="curve" smooth="yes"/>
      <point x="542" y="668"/>
      <point x="625" y="630"/>
      <point x="678" y="563" type="curve"/>
      <point x="712" y="589" type="line"/>
      <point x="652" y="667"/>
      <point x="554" y="711"/>
      <point x="444" y="711" type="curve" smooth="yes"/>
      <point x="242" y="711"/>
      <point x="69" y="535"/>
      <point x="69" y="320" type="curve" smooth="yes"/>
      <point x="69" y="132"/>
      <point x="209" y="-11"/>
    </contour>
  </outline>
</glyph>
<glyph name="F" format="2">
  <advance width="580"/>
  <unicode hex="0046"/>
  <outline>
    <contour>
      <point x="29" y="0" type="line"/>
      <point x="74" y="0" type="line"/>
      <point x="144" y="327" type="line"/>
      <point x="424" y="327" type="line"/>
      <point x="433" y="370" type="line"/>
      <point x="153" y="370" type="line"/>
      <point x="214" y="657" type="line"/>
      <point x="643" y="657" type="line"/>
      <point x="652" y="700" type="line"/>
      <point x="178" y="700" type="line"/>
    </contour>
  </outline>
</glyph>
<glyph name="K" format="2">
  <advance width="568"/>
  <unicode hex="004B"/>
  <anchor x="232" y="0" name="bottom"/>
  <outline>
    <contour>
      <point x="29" y="0" type="line"/>
      <point x="74" y="0" type="line"/>
      <point x="148" y="349" type="line"/>
      <point x="463" y="0" type="line"/>
      <point x="523" y="0" type="line"/>
      <point x="200" y="355" type="line"/>
      <point x="668" y="700" type="line"/>
      <point x="597" y="700" type="line"/>
      <point x="153" y="370" type="line"/>
      <point x="223" y="700" type="line"/>
      <point x="178" y="700" type="line"/>
    </contour>
  </outline>
</glyph>
<glyph name="N" format="2">
  <advance width="699"/>
  <unicode hex="004E"/>
  <anchor x="447" y="700" name="top"/>
  <anchor x="298" y="0" name="bottom"/>
  <outline>
    <contour>
      <point x="29" y="0" type="line"/>
      <point x="72" y="0" type="line"/>
      <point x="208" y="638" type="line"/>
      <point x="531" y="0" type="line"/>
      <point x="566" y="0" type="line"/>
      <point x="715" y="700" type="line"/>
      <point x="672" y="700" type="line"/>
      <point x="539" y="76" type="line"/>
      <point x="223" y="700" type="line"/>
      <point x="178" y="700" type="line"/>
    </contour>
  </outline>
</glyph>
<glyph name="O" format="2">
  <advance width="793"/>
  <unicode hex="004F"/>
  <anchor x="494" y="700" name="top"/>
  <outline>
    <contour>
      <point x="388" y="-11" type="curve" smooth="yes"/>
      <point x="596" y="-11"/>
      <point x="770" y="175"/>
      <point x="770" y="386" type="curve" smooth="yes"/>
      <point x="770" y="571"/>
      <point x="633" y="711"/>
      <point x="450" y="711" type="curve" smooth="yes"/>
      <point x="244" y="711"/>
      <point x="68" y="528"/>
      <point x="68" y="314" type="curve" smooth="yes"/>
      <point x="68" y="129"/>
      <point x="205" y="-11"/>
    </contour>
    <contour>
      <point x="391" y="32" type="curve" smooth="yes"/>
      <point x="221" y="32"/>
      <point x="114" y="162"/>
      <point x="114" y="316" type="curve" smooth="yes"/>
      <point x="114" y="505"/>
      <point x="263" y="668"/>
      <point x="447" y="668" type="curve" smooth="yes"/>
      <point x="617" y="668"/>
      <point x="724" y="538"/>
      <point x="724" y="384" type="curve" smooth="yes"/>
      <point x="724" y="195"/>
      <point x="575" y="32"/>
    </contour>
  </outline>
</glyph>
<glyph name="P" format="2">
  <advance width="618"/>
  <unicode hex="0050"/>
  <outline>
    <contour>
      <point x="29" y="0" type="line"/>
      <point x="74" y="0" type="line"/>
      <point x="140" y="309" type="line"/>
      <point x="390" y="309" type="line" smooth="yes"/>
      <point x="535" y="309"/>
      <point x="633" y="401"/>
      <point x="633" y="527" type="curve" smooth="yes"/>
      <point x="633" y="636"/>
      <point x="556" y="700"/>
      <point x="434" y="700" type="curve" smooth="yes"/>
      <point x="178" y="700" type="line"/>
    </contour>
    <contour>
      <point x="149" y="352" type="line"/>
      <point x="214" y="657" type="line"/>
      <point x="435" y="657" type="line" smooth="yes"/>
      <point x="530" y="657"/>
      <point x="587" y="611"/>
      <point x="587" y="525" type="curve" smooth="yes"/>
      <point x="587" y="426"/>
      <point x="507" y="352"/>
      <point x="390" y="352" type="curve" smooth="yes"/>
    </contour>
  </outline>
</glyph>
<glyph name="Q" format="2">
  <advance width="792"/>
  <unicode hex="0051"/>
  <outline>
    <contour>
      <point x="388" y="-11" type="curve" smooth="yes"/>
      <point x="463" y="-11"/>
      <point x="533" y="13"/>
      <point x="592" y="53" type="curve"/>
      <point x="635" y="-15" type="line"/>
      <point x="685" y="-11" type="line"/>
      <point x="627" y="80" type="line"/>
      <point x="714" y="154"/>
      <point x="770" y="266"/>
      <point x="770" y="386" type="curve" smooth="yes"/>
      <point x="770" y="571"/>
      <point x="633" y="711"/>
      <point x="450" y="711" type="curve" smooth="yes"/>
      <point x="244" y="711"/>
      <point x="68" y="528"/>
      <point x="68" y="314" type="curve" smooth="yes"/>
      <point x="68" y="129"/>
      <point x="205" y="-11"/>
    </contour>
    <contour>
      <point x="391" y="32" type="curve" smooth="yes"/>
      <point x="221" y="32"/>
      <point x="114" y="162"/>
      <point x="114" y="316" type="curve" smooth="yes"/>
      <point x="114" y="505"/>
      <point x="263" y="668"/>
      <point x="447" y="668" type="curve" smooth="yes"/>
      <point x="617" y="668"/>
      <point x="724" y="538"/>
      <point x="724" y="384" type="curve" smooth="yes"/>
      <point x="724" y="279"/>
      <point x="678" y="181"/>
      <point x="605" y="116" type="curve"/>
      <point x="539" y="219" type="line"/>
      <point x="490" y="215" type="line"/>
      <point x="570" y="89" type="line"/>
      <point x="518" y="53"/>
      <point x="457" y="32"/>
    </contour>
  </outline>
</glyph>
<glyph name="S" format="2">
  <advance width="576"/>
  <unicode hex="0053"/>
  <note>
Version created Fri Aug  3 17:49:29 2018
</note>
  <anchor x="335" y="700" name="top"/>
  <anchor x="286" y="0" name="bottom"/>
  <outline>
    <contour>
      <point x="283" y="-11" type="curve" smooth="yes"/>
      <point x="432" y="-11"/>
      <point x="539" y="72"/>
      <point x="539" y="196" type="curve" smooth="yes"/>
      <point x="539" y="288"/>
      <point x="479" y="336"/>
      <point x="347" y="374" type="curve" smooth="yes"/>
      <point x="273" y="395" type="line" smooth="yes"/>
      <point x="175" y="423"/>
      <point x="133" y="460"/>
      <point x="133" y="523" type="curve" smooth="yes"/>
      <point x="133" y="610"/>
      <point x="205" y="668"/>
      <point x="321" y="668" type="curve" smooth="yes"/>
      <point x="404" y="668"/>
      <point x="490" y="631"/>
      <point x="560" y="566" type="curve"/>
      <point x="590" y="599" type="line"/>
      <point x="514" y="670"/>
      <point x="416" y="711"/>
      <point x="323" y="711" type="curve" smooth="yes"/>
      <point x="181" y="711"/>
      <point x="87" y="637"/>
      <point x="87" y="523" type="curve" smooth="yes"/>
      <point x="87" y="436"/>
      <point x="145" y="384"/>
      <point x="261" y="351" type="curve" smooth="yes"/>
      <point x="335" y="330" type="line" smooth="yes"/>
      <point x="450" y="297"/>
      <point x="493" y="264"/>
      <point x="493" y="196" type="curve" smooth="yes"/>
      <point x="493" y="99"/>
      <point x="408" y="32"/>
      <point x="282" y="32" type="curve" smooth="yes"/>
      <point x="183" y="32"/>
      <point x="98" y="80"/>
      <point x="40" y="169" type="curve"/>
      <point x="2" y="143" type="line"/>
      <point x="68" y="43"/>
      <point x="168" y="-11"/>
    </contour>
  </outline>
</glyph>
<glyph name="T" format="2">
  <advance width="588"/>
  <unicode hex="0054"/>
  <guideline x="104" y="658" angle="78.0" identifier="TDKvMDivs9"/>
  <guideline x="242" y="0" angle="0.0" color="0.999,0.001,0.001,0.999" identifier="w8Q8ZMpKqb"/>
  <anchor x="391" y="700" name="top"/>
  <anchor x="242" y="0" name="bottom"/>
  <outline>
    <contour>
      <point x="220" y="0" type="line"/>
      <point x="265" y="0" type="line"/>
      <point x="405" y="657" type="line"/>
      <point x="660" y="657" type="line"/>
      <point x="669" y="700" type="line"/>
      <point x="113" y="700" type="line"/>
      <point x="104" y="657" type="line"/>
      <point x="360" y="657" type="line"/>
    </contour>
  </outline>
</glyph>
<glyph name="U" format="2">
  <advance width="680"/>
  <unicode hex="0055"/>
  <anchor x="437" y="700" name="top"/>
  <anchor x="395" y="0" name="bottom"/>
  <outline>
    <contour>
      <point x="314" y="-11" type="curve" smooth="yes"/>
      <point x="478" y="-11"/>
      <point x="583" y="102"/>
      <point x="624" y="295" type="curve" smooth="yes"/>
      <point x="710" y="700" type="line"/>
      <point x="665" y="700" type="line"/>
      <point x="579" y="295" type="line" smooth="yes"/>
      <point x="544" y="129"/>
      <point x="447" y="32"/>
      <point x="313" y="32" type="curve" smooth="yes"/>
      <point x="173" y="32"/>
      <point x="87" y="127"/>
      <point x="123" y="297" type="curve" smooth="yes"/>
      <point x="209" y="700" type="line"/>
      <point x="164" y="700" type="line"/>
      <point x="77" y="292" type="line" smooth="yes"/>
      <point x="36" y="101"/>
      <point x="152" y="-11"/>
    </contour>
  </outline>
</glyph>
<glyph name="V" format="2">
  <advance width="642"/>
  <unicode hex="0056"/>
  <outline>
    <contour>
      <point x="242" y="0" type="line"/>
      <point x="301" y="0" type="line"/>
      <point x="732" y="700" type="line"/>
      <point x="682" y="700" type="line"/>
      <point x="278" y="41" type="line"/>
      <point x="150" y="700" type="line"/>
      <point x="105" y="700" type="line"/>
    </contour>
  </outline>
</glyph>
<glyph name="W" format="2">
  <advance width="867"/>
  <unicode hex="0057"/>
  <anchor x="531" y="700" name="top"/>
  <outline>
    <contour>
      <point x="165" y="0" type="line"/>
      <point x="207" y="0" type="line"/>
      <point x="518" y="638" type="line"/>
      <point x="558" y="0" type="line"/>
      <point x="600" y="0" type="line"/>
      <point x="927" y="700" type="line"/>
      <point x="881" y="700" type="line"/>
      <point x="593" y="79" type="line"/>
      <point x="553" y="700" type="line"/>
      <point x="507" y="700" type="line"/>
      <point x="205" y="81" type="line"/>
      <point x="178" y="700" type="line"/>
      <point x="135" y="700" type="line"/>
    </contour>
  </outline>
</glyph>
<glyph name="X" format="2">
  <advance width="599"/>
  <unicode hex="0058"/>
  <outline>
    <contour>
      <point x="-46" y="0" type="line"/>
      <point x="13" y="0" type="line"/>
      <point x="317" y="329" type="line"/>
      <point x="491" y="0" type="line"/>
      <point x="541" y="0" type="line"/>
      <point x="349" y="361" type="line"/>
      <point x="669" y="700" type="line"/>
      <point x="610" y="700" type="line"/>
      <point x="328" y="398" type="line"/>
      <point x="173" y="700" type="line"/>
      <point x="123" y="700" type="line"/>
      <point x="296" y="367" type="line"/>
    </contour>
  </outline>
</glyph>
<glyph name="Z" format="2">
  <advance width="586"/>
  <unicode hex="005A"/>
  <anchor x="390" y="700" name="top"/>
  <outline>
    <contour>
      <point x="-27" y="0" type="line"/>
      <point x="505" y="0" type="line"/>
      <point x="514" y="43" type="line"/>
      <point x="48" y="43" type="line"/>
      <point x="636" y="665" type="line"/>
      <point x="644" y="700" type="line"/>
      <point x="125" y="700" type="line"/>
      <point x="117" y="657" type="line"/>
      <point x="569" y="657" type="line"/>
      <point x="-19" y="35" type="line"/>
    </contour>
  </outline>
</glyph>
<glyph name="bracketleft" format="2">
  <advance width="320"/>
  <unicode hex="005B"/>
  <outline>
    <contour>
      <point x="-41" y="-215" type="line"/>
      <point x="184" y="-215" type="line"/>
      <point x="193" y="-176" type="line"/>
      <point x="11" y="-176" type="line"/>
      <point x="189" y="661" type="line"/>
      <point x="371" y="661" type="line"/>
      <point x="379" y="700" type="line"/>
      <point x="153" y="700" type="line"/>
    </contour>
  </outline>
</glyph>
<glyph name="backslash" format="2">
  <advance width="367"/>
  <unicode hex="005C"/>
  <outline>
    <contour>
      <point x="364" y="-204" type="line"/>
      <point x="145" y="700" type="line"/>
      <point x="101" y="700" type="line"/>
      <point x="320" y="-204" type="line"/>
    </contour>
  </outline>
</glyph>
<glyph name="bracketright" format="2">
  <advance width="320"/>
  <unicode hex="005D"/>
  <outline>
    <contour>
      <point x="360" y="700" type="line"/>
      <point x="135" y="700" type="line"/>
      <point x="126" y="661" type="line"/>
      <point x="308" y="661" type="line"/>
      <point x="130" y="-176" type="line"/>
      <point x="-52" y="-176" type="line"/>
      <point x="-60" y="-215" type="line"/>
      <point x="166" y="-215" type="line"/>
    </contour>
  </outline>
</glyph>
<glyph name="a" format="2">
  <advance width="489"/>
  <unicode hex="0061"/>
  <note>
Version created Mon Aug  6 16:22:34 2018
</note>
  <anchor x="282" y="492" name="top"/>
  <anchor x="376" y="0" name="bottom"/>
  <outline>
    <contour>
      <point x="187" y="-10" type="curve" smooth="yes"/>
      <point x="246" y="-10"/>
      <point x="298" y="9"/>
      <point x="343" y="43" type="curve"/>
      <point x="334" y="0" type="line"/>
      <point x="377" y="0" type="line"/>
      <point x="445" y="318" type="line" smooth="yes"/>
      <point x="471" y="441"/>
      <point x="397" y="502"/>
      <point x="281" y="502" type="curve" smooth="yes"/>
      <point x="229" y="502"/>
      <point x="177" y="489"/>
      <point x="109" y="459" type="curve"/>
      <point x="124" y="421" type="line"/>
      <point x="186" y="449"/>
      <point x="234" y="463"/>
      <point x="285" y="463" type="curve" smooth="yes"/>
      <point x="384" y="463"/>
      <point x="421" y="408"/>
      <point x="401" y="314" type="curve" smooth="yes"/>
      <point x="384" y="233" type="line"/>
      <point x="341" y="268"/>
      <point x="280" y="289"/>
      <point x="217" y="289" type="curve" smooth="yes"/>
      <point x="104" y="289"/>
      <point x="20" y="227"/>
      <point x="20" y="130" type="curve" smooth="yes"/>
      <point x="20" y="45"/>
      <point x="87" y="-10"/>
    </contour>
    <contour>
      <point x="195" y="29" type="curve" smooth="yes"/>
      <point x="108" y="29"/>
      <point x="63" y="72"/>
      <point x="63" y="132" type="curve" smooth="yes"/>
      <point x="63" y="206"/>
      <point x="126" y="251"/>
      <point x="213" y="251" type="curve" smooth="yes"/>
      <point x="279" y="251"/>
      <point x="335" y="231"/>
      <point x="375" y="192" type="curve"/>
      <point x="354" y="92" type="line"/>
      <point x="307" y="51"/>
      <point x="256" y="29"/>
    </contour>
  </outline>
</glyph>
<glyph name="c" format="2">
  <advance width="493"/>
  <unicode hex="0063"/>
  <anchor x="311" y="492" name="top"/>
  <anchor x="261" y="0" name="bottom"/>
  <outline>
    <contour>
      <point x="258" y="-10" type="curve" smooth="yes"/>
      <point x="318" y="-10"/>
      <point x="378" y="10"/>
      <point x="437" y="52" type="curve"/>
      <point x="411" y="88" type="line"/>
      <point x="359" y="51"/>
      <point x="309" y="32"/>
      <point x="262" y="32" type="curve" smooth="yes"/>
      <point x="161" y="32"/>
      <point x="87" y="112"/>
      <point x="87" y="219" type="curve" smooth="yes"/>
      <point x="87" y="347"/>
      <point x="191" y="460"/>
      <point x="308" y="460" type="curve" smooth="yes"/>
      <point x="369" y="460"/>
      <point x="426" y="429"/>
      <point x="462" y="378" type="curve"/>
      <point x="495" y="407" type="line"/>
      <point x="451" y="466"/>
      <point x="381" y="502"/>
      <point x="312" y="502" type="curve" smooth="yes"/>
      <point x="167" y="502"/>
      <point x="43" y="371"/>
      <point x="43" y="219" type="curve" smooth="yes"/>
      <point x="43" y="90"/>
      <point x="137" y="-10"/>
    </contour>
  </outline>
</glyph>
<glyph name="d" format="2">
  <advance width="560"/>
  <unicode hex="0064"/>
  <outline>
    <contour>
      <point x="259" y="-10" type="curve" smooth="yes"/>
      <point x="311" y="-10"/>
      <point x="361" y="7"/>
      <point x="406" y="41" type="curve"/>
      <point x="397" y="0" type="line"/>
      <point x="440" y="0" type="line"/>
      <point x="591" y="711" type="line"/>
      <point x="546" y="700" type="line"/>
      <point x="486" y="420" type="line"/>
      <point x="448" y="471"/>
      <point x="384" y="502"/>
      <point x="312" y="502" type="curve" smooth="yes"/>
      <point x="164" y="502"/>
      <point x="43" y="374"/>
      <point x="43" y="218" type="curve" smooth="yes"/>
      <point x="43" y="87"/>
      <point x="134" y="-10"/>
    </contour>
    <contour>
      <point x="266" y="32" type="curve" smooth="yes"/>
      <point x="161" y="32"/>
      <point x="87" y="110"/>
      <point x="87" y="221" type="curve" smooth="yes"/>
      <point x="87" y="353"/>
      <point x="188" y="460"/>
      <point x="313" y="460" type="curve" smooth="yes"/>
      <point x="384" y="460"/>
      <point x="449" y="421"/>
      <point x="475" y="366" type="curve"/>
      <point x="417" y="95" type="line"/>
      <point x="376" y="55"/>
      <point x="322" y="32"/>
    </contour>
  </outline>
</glyph>
<glyph name="e" format="2">
  <advance width="539"/>
  <unicode hex="0065"/>
  <anchor x="308" y="492" name="top"/>
  <anchor x="339" y="0" name="bottom"/>
  <outline>
    <contour>
      <point x="263" y="-10" type="curve" smooth="yes"/>
      <point x="323" y="-10"/>
      <point x="387" y="8"/>
      <point x="436" y="40" type="curve"/>
      <point x="412" y="76" type="line"/>
      <point x="368" y="49"/>
      <point x="317" y="32"/>
      <point x="265" y="32" type="curve" smooth="yes"/>
      <point x="159" y="32"/>
      <point x="83" y="117"/>
      <point x="87" y="234" type="curve"/>
      <point x="499" y="234" type="line"/>
      <point x="500" y="242"/>
      <point x="502" y="273"/>
      <point x="502" y="280" type="curve" smooth="yes"/>
      <point x="502" y="407"/>
      <point x="422" y="502"/>
      <point x="306" y="502" type="curve" smooth="yes"/>
      <point x="161" y="502"/>
      <point x="43" y="375"/>
      <point x="43" y="219" type="curve" smooth="yes"/>
      <point x="43" y="90"/>
      <point x="142" y="-10"/>
    </contour>
    <contour>
      <point x="93" y="276" type="line"/>
      <point x="116" y="382"/>
      <point x="201" y="460"/>
      <point x="302" y="460" type="curve" smooth="yes"/>
      <point x="402" y="460"/>
      <point x="463" y="375"/>
      <point x="459" y="276" type="curve"/>
    </contour>
  </outline>
</glyph>
<glyph name="f" format="2">
  <advance width="341"/>
  <unicode hex="0066"/>
  <guideline x="112" y="150" angle="78.0" identifier="qqIjPlwYHr"/>
  <outline>
    <contour>
      <point x="81" y="0" type="line"/>
      <point x="124" y="0" type="line"/>
      <point x="220" y="452" type="line"/>
      <point x="368" y="452" type="line"/>
      <point x="377" y="492" type="line"/>
      <point x="228" y="492" type="line"/>
      <point x="252" y="603" type="line" smooth="yes"/>
      <point x="266" y="669"/>
      <point x="297" y="698"/>
      <point x="355" y="698" type="curve" smooth="yes"/>
      <point x="378" y="698"/>
      <point x="394" y="694"/>
      <point x="417" y="684" type="curve"/>
      <point x="425" y="726" type="line"/>
      <point x="401" y="736"/>
      <point x="381" y="740"/>
      <point x="355" y="740" type="curve" smooth="yes"/>
      <point x="277" y="740"/>
      <point x="228" y="696"/>
      <point x="210" y="611" type="curve" smooth="yes"/>
      <point x="185" y="492" type="line"/>
      <point x="69" y="492" type="line"/>
      <point x="60" y="452" type="line"/>
      <point x="176" y="452" type="line"/>
    </contour>
  </outline>
</glyph>
<glyph name="h" format="2">
  <advance width="519"/>
  <unicode hex="0068"/>
  <guideline x="72" y="264" angle="78.0" identifier="PAA86uE6v5"/>
  <guideline x="37" y="0" angle="78.0" color="0.999,0.001,0.001,0.999" identifier="ePaUkP5b0A"/>
  <anchor x="186" y="700" name="top"/>
  <outline>
    <contour>
      <point x="16" y="0" type="line"/>
      <point x="59" y="0" type="line"/>
      <point x="140" y="379" type="line"/>
      <point x="179" y="430"/>
      <point x="237" y="461"/>
      <point x="300" y="461" type="curve" smooth="yes"/>
      <point x="395" y="461"/>
      <point x="444" y="395"/>
      <point x="422" y="291" type="curve" smooth="yes"/>
      <point x="360" y="0" type="line"/>
      <point x="403" y="0" type="line"/>
      <point x="466" y="297" type="line" smooth="yes"/>
      <point x="492" y="419"/>
      <point x="420" y="502"/>
      <point x="308" y="502" type="curve" smooth="yes"/>
      <point x="248" y="502"/>
      <point x="196" y="479"/>
      <point x="151" y="433" type="curve"/>
      <point x="210" y="711" type="line"/>
      <point x="165" y="700" type="line"/>
    </contour>
  </outline>
</glyph>
<glyph name="k" format="2">
  <advance width="453"/>
  <unicode hex="006B"/>
  <guideline x="120" y="486" angle="78.0" identifier="irZJMcBGLu"/>
  <anchor x="175" y="0" name="bottom"/>
  <outline>
    <contour>
      <point x="16" y="0" type="line"/>
      <point x="59" y="0" type="line"/>
      <point x="111" y="245" type="line"/>
      <point x="343" y="0" type="line"/>
      <point x="402" y="0" type="line"/>
      <point x="157" y="256" type="line"/>
      <point x="494" y="492" type="line"/>
      <point x="423" y="492" type="line"/>
      <point x="117" y="274" type="line"/>
      <point x="210" y="711" type="line"/>
      <point x="165" y="700" type="line"/>
    </contour>
  </outline>
</glyph>
<glyph name="n" format="2">
  <advance width="519"/>
  <unicode hex="006E"/>
  <guideline x="520" y="550" angle="78.0" identifier="cI2v9Cx5HW"/>
  <anchor x="312" y="492" name="top"/>
  <anchor x="208" y="0" name="bottom"/>
  <outline>
    <contour>
      <point x="16" y="0" type="line"/>
      <point x="59" y="0" type="line"/>
      <point x="140" y="380" type="line"/>
      <point x="179" y="430"/>
      <point x="237" y="461"/>
      <point x="300" y="461" type="curve" smooth="yes"/>
      <point x="395" y="461"/>
      <point x="444" y="395"/>
      <point x="422" y="291" type="curve" smooth="yes"/>
      <point x="360" y="0" type="line"/>
      <point x="403" y="0" type="line"/>
      <point x="466" y="297" type="line" smooth="yes"/>
      <point x="492" y="420"/>
      <point x="420" y="502"/>
      <point x="308" y="502" type="curve" smooth="yes"/>
      <point x="248" y="502"/>
      <point x="196" y="480"/>
      <point x="152" y="434" type="curve"/>
      <point x="164" y="492" type="line"/>
      <point x="121" y="492" type="line"/>
    </contour>
  </outline>
</glyph>
<glyph name="q" format="2">
  <advance width="560"/>
  <unicode hex="0071"/>
  <outline>
    <contour>
      <point x="354" y="-204" type="line"/>
      <point x="397" y="-204" type="line"/>
      <point x="545" y="492" type="line"/>
      <point x="502" y="492" type="line"/>
      <point x="486" y="420" type="line"/>
      <point x="448" y="471"/>
      <point x="384" y="502"/>
      <point x="312" y="502" type="curve" smooth="yes"/>
      <point x="164" y="502"/>
      <point x="43" y="374"/>
      <point x="43" y="218" type="curve" smooth="yes"/>
      <point x="43" y="87"/>
      <point x="134" y="-10"/>
      <point x="259" y="-10" type="curve" smooth="yes"/>
      <point x="311" y="-10"/>
      <point x="361" y="7"/>
      <point x="406" y="41" type="curve"/>
    </contour>
    <contour>
      <point x="266" y="32" type="curve" smooth="yes"/>
      <point x="161" y="32"/>
      <point x="87" y="110"/>
      <point x="87" y="221" type="curve" smooth="yes"/>
      <point x="87" y="353"/>
      <point x="188" y="460"/>
      <point x="313" y="460" type="curve" smooth="yes"/>
      <point x="384" y="460"/>
      <point x="449" y="422"/>
      <point x="475" y="367" type="curve"/>
      <point x="417" y="95" type="line"/>
      <point x="376" y="55"/>
      <point x="322" y="32"/>
    </contour>
  </outline>
</glyph>
<glyph name="v" format="2">
  <advance width="473"/>
  <unicode hex="0076"/>
  <outline>
    <contour>
      <point x="164" y="0" type="line"/>
      <point x="204" y="0" type="line"/>
      <point x="519" y="492" type="line"/>
      <point x="469" y="492" type="line"/>
      <point x="195" y="61" type="line"/>
      <point x="105" y="492" type="line"/>
      <point x="60" y="492" type="line"/>
    </contour>
  </outline>
</glyph>
<glyph name="w" format="2">
  <advance width="657"/>
  <unicode hex="0077"/>
  <anchor x="380" y="492" name="top"/>
  <outline>
    <contour>
      <point x="111" y="0" type="line"/>
      <point x="154" y="0" type="line"/>
      <point x="368" y="428" type="line"/>
      <point x="399" y="0" type="line"/>
      <point x="443" y="0" type="line"/>
      <point x="695" y="492" type="line"/>
      <point x="650" y="492" type="line"/>
      <point x="433" y="64" type="line"/>
      <point x="402" y="492" type="line"/>
      <point x="359" y="492" type="line"/>
      <point x="146" y="67" type="line"/>
      <point x="111" y="492" type="line"/>
      <point x="68" y="492" type="line"/>
    </contour>
  </outline>
</glyph>
<glyph name="x" format="2">
  <advance width="451"/>
  <unicode hex="0078"/>
  <outline>
    <contour>
      <point x="-44" y="0" type="line"/>
      <point x="13" y="0" type="line"/>
      <point x="225" y="222" type="line"/>
      <point x="342" y="0" type="line"/>
      <point x="391" y="0" type="line"/>
      <point x="255" y="252" type="line"/>
      <point x="487" y="492" type="line"/>
      <point x="430" y="492" type="line"/>
      <point x="235" y="288" type="line"/>
      <point x="127" y="492" type="line"/>
      <point x="78" y="492" type="line"/>
      <point x="204" y="258" type="line"/>
    </contour>
  </outline>
</glyph>
<glyph name="braceleft" format="2">
  <advance width="352"/>
  <unicode hex="007B"/>
  <guideline x="212" y="-222" angle="78.0" identifier="VUh5LdMHNC"/>
  <outline>
    <contour>
      <point x="160" y="-214" type="curve" smooth="yes"/>
      <point x="173" y="-214"/>
      <point x="189" y="-212"/>
      <point x="211" y="-205" type="curve"/>
      <point x="207" y="-168" type="line"/>
      <point x="188" y="-174"/>
      <point x="179" y="-176"/>
      <point x="163" y="-176" type="curve" smooth="yes"/>
      <point x="86" y="-176"/>
      <point x="63" y="-118"/>
      <point x="113" y="-38" type="curve" smooth="yes"/>
      <point x="189" y="84" type="line" smooth="yes"/>
      <point x="230" y="150"/>
      <point x="218" y="213"/>
      <point x="160" y="243" type="curve"/>
      <point x="229" y="263"/>
      <point x="268" y="326"/>
      <point x="258" y="399" type="curve" smooth="yes"/>
      <point x="238" y="543" type="line" smooth="yes"/>
      <point x="228" y="618"/>
      <point x="259" y="670"/>
      <point x="319" y="670" type="curve" smooth="yes"/>
      <point x="340" y="670"/>
      <point x="363" y="665"/>
      <point x="382" y="656" type="curve"/>
      <point x="401" y="691" type="line"/>
      <point x="376" y="704"/>
      <point x="346" y="711"/>
      <point x="321" y="711" type="curve" smooth="yes"/>
      <point x="232" y="711"/>
      <point x="180" y="631"/>
      <point x="196" y="524" type="curve" smooth="yes"/>
      <point x="214" y="407" type="line" smooth="yes"/>
      <point x="227" y="324"/>
      <point x="186" y="267"/>
      <point x="114" y="267" type="curve" smooth="yes"/>
      <point x="42" y="267" type="line"/>
      <point x="34" y="225" type="line"/>
      <point x="105" y="225" type="line" smooth="yes"/>
      <point x="176" y="225"/>
      <point x="195" y="159"/>
      <point x="145" y="84" type="curve" smooth="yes"/>
      <point x="81" y="-11" type="line" smooth="yes"/>
      <point x="6" y="-122"/>
      <point x="43" y="-214"/>
    </contour>
  </outline>
</glyph>
<glyph name="braceright" format="2">
  <advance width="352"/>
  <unicode hex="007D"/>
  <outline>
    <contour>
      <point x="193" y="711" type="curve" smooth="yes"/>
      <point x="180" y="711"/>
      <point x="164" y="709"/>
      <point x="142" y="702" type="curve"/>
      <point x="146" y="665" type="line"/>
      <point x="165" y="671"/>
      <point x="174" y="673"/>
      <point x="190" y="673" type="curve" smooth="yes"/>
      <point x="267" y="673"/>
      <point x="290" y="615"/>
      <point x="240" y="535" type="curve" smooth="yes"/>
      <point x="164" y="413" type="line" smooth="yes"/>
      <point x="123" y="347"/>
      <point x="135" y="284"/>
      <point x="193" y="254" type="curve"/>
      <point x="124" y="234"/>
      <point x="85" y="171"/>
      <point x="95" y="98" type="curve" smooth="yes"/>
      <point x="115" y="-46" type="line" smooth="yes"/>
      <point x="125" y="-121"/>
      <point x="94" y="-173"/>
      <point x="34" y="-173" type="curve" smooth="yes"/>
      <point x="13" y="-173"/>
      <point x="-10" y="-168"/>
      <point x="-29" y="-159" type="curve"/>
      <point x="-48" y="-194" type="line"/>
      <point x="-23" y="-207"/>
      <point x="7" y="-214"/>
      <point x="32" y="-214" type="curve" smooth="yes"/>
      <point x="121" y="-214"/>
      <point x="173" y="-134"/>
      <point x="157" y="-27" type="curve" smooth="yes"/>
      <point x="139" y="90" type="line" smooth="yes"/>
      <point x="126" y="173"/>
      <point x="167" y="230"/>
      <point x="239" y="230" type="curve" smooth="yes"/>
      <point x="311" y="230" type="line"/>
      <point x="319" y="272" type="line"/>
      <point x="248" y="272" type="line" smooth="yes"/>
      <point x="177" y="272"/>
      <point x="158" y="338"/>
      <point x="208" y="413" type="curve" smooth="yes"/>
      <point x="272" y="508" type="line" smooth="yes"/>
      <point x="347" y="619"/>
      <point x="310" y="711"/>
    </contour>
  </outline>
</glyph>
<glyph name="exclamdown" format="2">
  <advance width="173"/>
  <unicode hex="00A1"/>
  <outline>
    <contour>
      <point x="120" y="317" type="line"/>
      <point x="83" y="317" type="line"/>
      <point x="-33" y="-204" type="line"/>
      <point x="14" y="-204" type="line"/>
    </contour>
    <contour>
      <point x="138" y="509" type="curve" smooth="yes"/>
      <point x="115" y="509"/>
      <point x="97" y="491"/>
      <point x="97" y="468" type="curve" smooth="yes"/>
      <point x="97" y="449"/>
      <point x="112" y="434"/>
      <point x="130" y="434" type="curve" smooth="yes"/>
      <point x="153" y="434"/>
      <point x="171" y="452"/>
      <point x="171" y="475" type="curve" smooth="yes"/>
      <point x="171" y="494"/>
      <point x="156" y="509"/>
    </contour>
  </outline>
</glyph>
<glyph name="sterling" format="2">
  <advance width="588"/>
  <unicode hex="00A3"/>
  <outline>
    <contour>
      <point x="409" y="-26" type="curve" smooth="yes"/>
      <point x="461" y="-26"/>
      <point x="503" y="-7"/>
      <point x="539" y="34" type="curve"/>
      <point x="505" y="62" type="line"/>
      <point x="478" y="31"/>
      <point x="449" y="16"/>
      <point x="412" y="16" type="curve" smooth="yes"/>
      <point x="395" y="16"/>
      <point x="377" y="19"/>
      <point x="357" y="24" type="curve" smooth="yes"/>
      <point x="157" y="73" type="line"/>
      <point x="183" y="95"/>
      <point x="199" y="132"/>
      <point x="201" y="180" type="curve" smooth="yes"/>
      <point x="207" y="314" type="line"/>
      <point x="415" y="314" type="line"/>
      <point x="425" y="355" type="line"/>
      <point x="208" y="355" type="line"/>
      <point x="213" y="468" type="line" smooth="yes"/>
      <point x="218" y="594"/>
      <point x="281" y="669"/>
      <point x="381" y="669" type="curve" smooth="yes"/>
      <point x="480" y="669"/>
      <point x="535" y="616"/>
      <point x="541" y="513" type="curve"/>
      <point x="584" y="519" type="line"/>
      <point x="575" y="642"/>
      <point x="503" y="711"/>
      <point x="381" y="711" type="curve" smooth="yes"/>
      <point x="256" y="711"/>
      <point x="175" y="618"/>
      <point x="169" y="470" type="curve" smooth="yes"/>
      <point x="164" y="355" type="line"/>
      <point x="64" y="355" type="line"/>
      <point x="55" y="314" type="line"/>
      <point x="163" y="314" type="line"/>
      <point x="157" y="182" type="line" smooth="yes"/>
      <point x="154" y="130"/>
      <point x="134" y="91"/>
      <point x="105" y="81" type="curve"/>
      <point x="44" y="82"/>
      <point x="-6" y="57"/>
      <point x="-42" y="1" type="curve"/>
      <point x="-8" y="-25" type="line"/>
      <point x="19" y="19"/>
      <point x="52" y="38"/>
      <point x="96" y="38" type="curve" smooth="yes"/>
      <point x="112" y="38"/>
      <point x="129" y="35"/>
      <point x="147" y="31" type="curve" smooth="yes"/>
      <point x="347" y="-18" type="line" smooth="yes"/>
      <point x="369" y="-23"/>
      <point x="390" y="-26"/>
    </contour>
  </outline>
</glyph>
<glyph name="uni00A4" format="2">
  <advance width="632"/>
  <unicode hex="00A4"/>
  <outline>
    <contour>
      <point x="58" y="71" type="line"/>
      <point x="151" y="165" type="line"/>
      <point x="194" y="126"/>
      <point x="251" y="102"/>
      <point x="316" y="102" type="curve" smooth="yes"/>
      <point x="381" y="102"/>
      <point x="438" y="126"/>
      <point x="481" y="165" type="curve"/>
      <point x="574" y="71" type="line"/>
      <point x="602" y="99" type="line"/>
      <point x="508" y="194" type="line"/>
      <point x="544" y="239"/>
      <point x="565" y="297"/>
      <point x="565" y="360" type="curve" smooth="yes"/>
      <point x="565" y="423"/>
      <point x="544" y="481"/>
      <point x="508" y="526" type="curve"/>
      <point x="602" y="621" type="line"/>
      <point x="574" y="649" type="line"/>
      <point x="481" y="555" type="line"/>
      <point x="438" y="594"/>
      <point x="381" y="618"/>
      <point x="316" y="618" type="curve" smooth="yes"/>
      <point x="251" y="618"/>
      <point x="194" y="594"/>
      <point x="151" y="555" type="curve"/>
      <point x="58" y="649" type="line"/>
      <point x="30" y="621" type="line"/>
      <point x="124" y="526" type="line"/>
      <point x="88" y="481"/>
      <point x="67" y="423"/>
      <point x="67" y="360" type="curve" smooth="yes"/>
      <point x="67" y="297"/>
      <point x="88" y="239"/>
      <point x="124" y="194" type="curve"/>
      <point x="30" y="99" type="line"/>
    </contour>
    <contour>
      <point x="316" y="142" type="curve" smooth="yes"/>
      <point x="199" y="142"/>
      <point x="109" y="238"/>
      <point x="109" y="360" type="curve" smooth="yes"/>
      <point x="109" y="482"/>
      <point x="199" y="578"/>
      <point x="316" y="578" type="curve" smooth="yes"/>
      <point x="433" y="578"/>
      <point x="523" y="482"/>
      <point x="523" y="360" type="curve" smooth="yes"/>
      <point x="523" y="238"/>
      <point x="433" y="142"/>
    </contour>
  </outline>
</glyph>
<glyph name="yen" format="2">
  <advance width="630"/>
  <unicode hex="00A5"/>
  <outline>
    <contour>
      <point x="239" y="0" type="line"/>
      <point x="284" y="0" type="line"/>
      <point x="314" y="142" type="line"/>
      <point x="503" y="142" type="line"/>
      <point x="511" y="183" type="line"/>
      <point x="323" y="183" type="line"/>
      <point x="341" y="269" type="line"/>
      <point x="529" y="269" type="line"/>
      <point x="537" y="310" type="line"/>
      <point x="364" y="310" type="line"/>
      <point x="704" y="700" type="line"/>
      <point x="647" y="700" type="line"/>
      <point x="330" y="333" type="line"/>
      <point x="168" y="700" type="line"/>
      <point x="120" y="700" type="line"/>
      <point x="293" y="310" type="line"/>
      <point x="115" y="310" type="line"/>
      <point x="107" y="269" type="line"/>
      <point x="296" y="269" type="line"/>
      <point x="278" y="183" type="line"/>
      <point x="89" y="183" type="line"/>
      <point x="81" y="142" type="line"/>
      <point x="269" y="142" type="line"/>
    </contour>
  </outline>
</glyph>
<glyph name="section" format="2">
  <advance width="549"/>
  <unicode hex="00A7"/>
  <outline>
    <contour>
      <point x="242" y="-49" type="curve" smooth="yes"/>
      <point x="336" y="-49"/>
      <point x="399" y="5"/>
      <point x="399" y="87" type="curve" smooth="yes"/>
      <point x="399" y="125"/>
      <point x="382" y="157"/>
      <point x="349" y="182" type="curve"/>
      <point x="441" y="196"/>
      <point x="502" y="248"/>
      <point x="502" y="319" type="curve" smooth="yes"/>
      <point x="502" y="374"/>
      <point x="469" y="414"/>
      <point x="396" y="447" type="curve" smooth="yes"/>
      <point x="294" y="495" type="line" smooth="yes"/>
      <point x="251" y="515"/>
      <point x="231" y="541"/>
      <point x="231" y="575" type="curve" smooth="yes"/>
      <point x="231" y="633"/>
      <point x="274" y="669"/>
      <point x="344" y="669" type="curve" smooth="yes"/>
      <point x="395" y="669"/>
      <point x="449" y="649"/>
      <point x="502" y="612" type="curve"/>
      <point x="528" y="646" type="line"/>
      <point x="469" y="688"/>
      <point x="403" y="711"/>
      <point x="344" y="711" type="curve" smooth="yes"/>
      <point x="250" y="711"/>
      <point x="187" y="657"/>
      <point x="187" y="575" type="curve" smooth="yes"/>
      <point x="187" y="537"/>
      <point x="204" y="505"/>
      <point x="237" y="480" type="curve"/>
      <point x="145" y="466"/>
      <point x="84" y="414"/>
      <point x="84" y="343" type="curve" smooth="yes"/>
      <point x="84" y="288"/>
      <point x="117" y="248"/>
      <point x="190" y="215" type="curve" smooth="yes"/>
      <point x="292" y="167" type="line" smooth="yes"/>
      <point x="335" y="147"/>
      <point x="355" y="121"/>
      <point x="355" y="87" type="curve" smooth="yes"/>
      <point x="355" y="29"/>
      <point x="312" y="-7"/>
      <point x="242" y="-7" type="curve" smooth="yes"/>
      <point x="191" y="-7"/>
      <point x="137" y="13"/>
      <point x="84" y="50" type="curve"/>
      <point x="58" y="16" type="line"/>
      <point x="117" y="-26"/>
      <point x="183" y="-49"/>
    </contour>
    <contour>
      <point x="304" y="208" type="curve"/>
      <point x="208" y="253" type="line" smooth="yes"/>
      <point x="151" y="280"/>
      <point x="128" y="306"/>
      <point x="128" y="343" type="curve" smooth="yes"/>
      <point x="128" y="408"/>
      <point x="190" y="453"/>
      <point x="282" y="454" type="curve"/>
      <point x="378" y="409" type="line" smooth="yes"/>
      <point x="435" y="382"/>
      <point x="458" y="356"/>
      <point x="458" y="319" type="curve" smooth="yes"/>
      <point x="458" y="254"/>
      <point x="396" y="209"/>
    </contour>
  </outline>
</glyph>
<glyph name="copyright" format="2">
  <advance width="801"/>
  <unicode hex="00A9"/>
  <outline>
    <contour>
      <point x="396" y="-9" type="curve" smooth="yes"/>
      <point x="603" y="-9"/>
      <point x="778" y="169"/>
      <point x="778" y="381" type="curve" smooth="yes"/>
      <point x="778" y="566"/>
      <point x="638" y="704"/>
      <point x="448" y="704" type="curve" smooth="yes"/>
      <point x="241" y="704"/>
      <point x="66" y="526"/>
      <point x="66" y="314" type="curve" smooth="yes"/>
      <point x="66" y="129"/>
      <point x="206" y="-9"/>
    </contour>
    <contour>
      <point x="396" y="27" type="curve" smooth="yes"/>
      <point x="227" y="27"/>
      <point x="104" y="147"/>
      <point x="104" y="314" type="curve" smooth="yes"/>
      <point x="104" y="507"/>
      <point x="260" y="668"/>
      <point x="448" y="668" type="curve" smooth="yes"/>
      <point x="617" y="668"/>
      <point x="740" y="548"/>
      <point x="740" y="381" type="curve" smooth="yes"/>
      <point x="740" y="188"/>
      <point x="584" y="27"/>
    </contour>
    <contour>
      <point x="416" y="168" type="curve" smooth="yes"/>
      <point x="458" y="168"/>
      <point x="500" y="182"/>
      <point x="538" y="209" type="curve"/>
      <point x="516" y="239" type="line"/>
      <point x="484" y="216"/>
      <point x="450" y="204"/>
      <point x="416" y="204" type="curve" smooth="yes"/>
      <point x="346" y="204"/>
      <point x="294" y="257"/>
      <point x="294" y="330" type="curve" smooth="yes"/>
      <point x="294" y="420"/>
      <point x="366" y="497"/>
      <point x="450" y="497" type="curve" smooth="yes"/>
      <point x="494" y="497"/>
      <point x="535" y="476"/>
      <point x="560" y="442" type="curve"/>
      <point x="590" y="462" type="line"/>
      <point x="560" y="505"/>
      <point x="510" y="533"/>
      <point x="450" y="533" type="curve" smooth="yes"/>
      <point x="345" y="533"/>
      <point x="256" y="440"/>
      <point x="256" y="330" type="curve" smooth="yes"/>
      <point x="256" y="237"/>
      <point x="324" y="168"/>
    </contour>
  </outline>
</glyph>
<glyph name="ordfeminine" format="2">
  <advance width="386"/>
  <unicode hex="00AA"/>
  <outline>
    <contour>
      <point x="207" y="325" type="curve" smooth="yes"/>
      <point x="249" y="325"/>
      <point x="287" y="338"/>
      <point x="322" y="365" type="curve"/>
      <point x="315" y="332" type="line"/>
      <point x="353" y="332" type="line"/>
      <point x="404" y="572" type="line" smooth="yes"/>
      <point x="422" y="655"/>
      <point x="371" y="711"/>
      <point x="277" y="711" type="curve" smooth="yes"/>
      <point x="234" y="711"/>
      <point x="191" y="701"/>
      <point x="146" y="681" type="curve"/>
      <point x="158" y="650" type="line"/>
      <point x="202" y="668"/>
      <point x="239" y="677"/>
      <point x="274" y="677" type="curve" smooth="yes"/>
      <point x="350" y="677"/>
      <point x="381" y="640"/>
      <point x="365" y="567" type="curve" smooth="yes"/>
      <point x="354" y="513" type="line"/>
      <point x="322" y="537"/>
      <point x="277" y="551"/>
      <point x="230" y="551" type="curve" smooth="yes"/>
      <point x="140" y="551"/>
      <point x="80" y="504"/>
      <point x="80" y="433" type="curve" smooth="yes"/>
      <point x="80" y="369"/>
      <point x="131" y="325"/>
    </contour>
    <contour>
      <point x="215" y="359" type="curve" smooth="yes"/>
      <point x="154" y="359"/>
      <point x="119" y="387"/>
      <point x="119" y="436" type="curve" smooth="yes"/>
      <point x="119" y="484"/>
      <point x="164" y="518"/>
      <point x="227" y="518" type="curve" smooth="yes"/>
      <point x="278" y="518"/>
      <point x="317" y="505"/>
      <point x="346" y="478" type="curve"/>
      <point x="331" y="407" type="line"/>
      <point x="294" y="375"/>
      <point x="257" y="359"/>
    </contour>
  </outline>
</glyph>
<glyph name="plusminus" format="2">
  <advance width="600"/>
  <unicode hex="00B1"/>
  <guideline x="324" y="571" angle="0.0" identifier="AEBLv7pdbD"/>
  <outline>
    <contour>
      <point x="59" y="-1" type="line"/>
      <point x="436" y="-1" type="line"/>
      <point x="445" y="40" type="line"/>
      <point x="68" y="40" type="line"/>
    </contour>
    <contour>
      <point x="262" y="162" type="line"/>
      <point x="303" y="162" type="line"/>
      <point x="343" y="348" type="line"/>
      <point x="510" y="348" type="line"/>
      <point x="519" y="388" type="line"/>
      <point x="351" y="388" type="line"/>
      <point x="390" y="571" type="line"/>
      <point x="349" y="571" type="line"/>
      <point x="310" y="388" type="line"/>
      <point x="142" y="388" type="line"/>
      <point x="133" y="348" type="line"/>
      <point x="302" y="348" type="line"/>
    </contour>
  </outline>
</glyph>
<glyph name="twosuperior" format="2">
  <advance width="279"/>
  <unicode hex="00B2"/>
  <outline>
    <contour>
      <point x="48" y="350" type="line"/>
      <point x="280" y="350" type="line"/>
      <point x="286" y="383" type="line"/>
      <point x="111" y="383" type="line"/>
      <point x="255" y="499" type="line" smooth="yes"/>
      <point x="308" y="542"/>
      <point x="330" y="576"/>
      <point x="330" y="617" type="curve" smooth="yes"/>
      <point x="330" y="669"/>
      <point x="286" y="705"/>
      <point x="224" y="705" type="curve" smooth="yes"/>
      <point x="185" y="705"/>
      <point x="148" y="690"/>
      <point x="105" y="659" type="curve"/>
      <point x="127" y="633" type="line"/>
      <point x="165" y="661"/>
      <point x="193" y="672"/>
      <point x="224" y="672" type="curve" smooth="yes"/>
      <point x="267" y="672"/>
      <point x="295" y="650"/>
      <point x="295" y="617" type="curve" smooth="yes"/>
      <point x="295" y="585"/>
      <point x="278" y="560"/>
      <point x="233" y="523" type="curve" smooth="yes"/>
      <point x="55" y="378" type="line"/>
    </contour>
  </outline>
</glyph>
<glyph name="threesuperior" format="2">
  <advance width="299"/>
  <unicode hex="00B3"/>
  <outline>
    <contour>
      <point x="181" y="345" type="curve" smooth="yes"/>
      <point x="255" y="345"/>
      <point x="312" y="392"/>
      <point x="312" y="452" type="curve" smooth="yes"/>
      <point x="312" y="486"/>
      <point x="291" y="513"/>
      <point x="257" y="526" type="curve"/>
      <point x="305" y="541"/>
      <point x="334" y="575"/>
      <point x="334" y="616" type="curve" smooth="yes"/>
      <point x="334" y="667"/>
      <point x="290" y="705"/>
      <point x="229" y="705" type="curve" smooth="yes"/>
      <point x="189" y="705"/>
      <point x="148" y="690"/>
      <point x="111" y="662" type="curve"/>
      <point x="129" y="635" type="line"/>
      <point x="163" y="661"/>
      <point x="192" y="672"/>
      <point x="225" y="672" type="curve" smooth="yes"/>
      <point x="269" y="672"/>
      <point x="299" y="648"/>
      <point x="299" y="612" type="curve" smooth="yes"/>
      <point x="299" y="572"/>
      <point x="259" y="542"/>
      <point x="206" y="542" type="curve" smooth="yes"/>
      <point x="179" y="542" type="line"/>
      <point x="173" y="511" type="line"/>
      <point x="201" y="511" type="line" smooth="yes"/>
      <point x="246" y="511"/>
      <point x="277" y="486"/>
      <point x="277" y="450" type="curve" smooth="yes"/>
      <point x="277" y="409"/>
      <point x="236" y="378"/>
      <point x="183" y="378" type="curve" smooth="yes"/>
      <point x="138" y="378"/>
      <point x="104" y="394"/>
      <point x="81" y="426" type="curve"/>
      <point x="53" y="404" type="line"/>
      <point x="83" y="365"/>
      <point x="125" y="345"/>
    </contour>
  </outline>
</glyph>
<glyph name="acute" format="2">
  <advance width="600"/>
  <unicode hex="00B4"/>
  <outline>
    <contour>
      <point x="347" y="596" type="line"/>
      <point x="393" y="596" type="line"/>
      <point x="532" y="706" type="line"/>
      <point x="464" y="706" type="line"/>
    </contour>
  </outline>
</glyph>
<glyph name="onesuperior" format="2">
  <advance width="148"/>
  <unicode hex="00B9"/>
  <outline>
    <contour>
      <point x="103" y="350" type="line"/>
      <point x="138" y="350" type="line"/>
      <point x="212" y="700" type="line"/>
      <point x="188" y="700" type="line"/>
      <point x="112" y="669" type="line"/>
      <point x="103" y="631" type="line"/>
      <point x="168" y="657" type="line"/>
    </contour>
  </outline>
</glyph>
<glyph name="questiondown" format="2">
  <advance width="487"/>
  <unicode hex="00BF"/>
  <outline>
    <contour>
      <point x="313" y="304" type="curve"/>
      <point x="273" y="304" type="line"/>
      <point x="261" y="228"/>
      <point x="230" y="182"/>
      <point x="171" y="148" type="curve" smooth="yes"/>
      <point x="103" y="109" type="line" smooth="yes"/>
      <point x="25" y="64"/>
      <point x="-16" y="4"/>
      <point x="-16" y="-66" type="curve" smooth="yes"/>
      <point x="-16" y="-153"/>
      <point x="61" y="-214"/>
      <point x="169" y="-214" type="curve" smooth="yes"/>
      <point x="242" y="-214"/>
      <point x="318" y="-183"/>
      <point x="386" y="-125" type="curve"/>
      <point x="358" y="-93" type="line"/>
      <point x="296" y="-145"/>
      <point x="232" y="-172"/>
      <point x="169" y="-172" type="curve" smooth="yes"/>
      <point x="85" y="-172"/>
      <point x="28" y="-129"/>
      <point x="28" y="-66" type="curve" smooth="yes"/>
      <point x="28" y="-11"/>
      <point x="60" y="36"/>
      <point x="125" y="73" type="curve" smooth="yes"/>
      <point x="193" y="112" type="line" smooth="yes"/>
      <point x="265" y="153"/>
      <point x="300" y="212"/>
    </contour>
    <contour>
      <point x="328" y="502" type="curve" smooth="yes"/>
      <point x="305" y="502"/>
      <point x="287" y="484"/>
      <point x="287" y="461" type="curve" smooth="yes"/>
      <point x="287" y="442"/>
      <point x="302" y="427"/>
      <point x="320" y="427" type="curve" smooth="yes"/>
      <point x="343" y="427"/>
      <point x="361" y="445"/>
      <point x="361" y="468" type="curve" smooth="yes"/>
      <point x="361" y="487"/>
      <point x="346" y="502"/>
    </contour>
  </outline>
</glyph>
<glyph name="AE" format="2">
  <advance width="920"/>
  <unicode hex="00C6"/>
  <outline>
    <contour>
      <point x="-44" y="0" type="line"/>
      <point x="7" y="0" type="line"/>
      <point x="152" y="237" type="line"/>
      <point x="492" y="237" type="line"/>
      <point x="538" y="0" type="line"/>
      <point x="838" y="0" type="line"/>
      <point x="847" y="43" type="line"/>
      <point x="575" y="43" type="line"/>
      <point x="518" y="332" type="line"/>
      <point x="766" y="332" type="line"/>
      <point x="775" y="375" type="line"/>
      <point x="510" y="375" type="line"/>
      <point x="454" y="657" type="line"/>
      <point x="974" y="657" type="line"/>
      <point x="983" y="700" type="line"/>
      <point x="387" y="700" type="line"/>
    </contour>
    <contour>
      <point x="177" y="278" type="line"/>
      <point x="410" y="659" type="line"/>
      <point x="484" y="278" type="line"/>
    </contour>
  </outline>
</glyph>
<glyph name="multiply" format="2">
  <advance width="600"/>
  <unicode hex="00D7"/>
  <outline>
    <contour>
      <point x="137" y="174" type="line"/>
      <point x="319" y="330" type="line"/>
      <point x="432" y="174" type="line"/>
      <point x="465" y="198" type="line"/>
      <point x="351" y="357" type="line"/>
      <point x="537" y="516" type="line"/>
      <point x="511" y="546" type="line"/>
      <point x="327" y="389" type="line"/>
      <point x="214" y="546" type="line"/>
      <point x="181" y="522" type="line"/>
      <point x="296" y="362" type="line"/>
      <point x="111" y="204" type="line"/>
    </contour>
  </outline>
</glyph>
<glyph name="Thorn" format="2">
  <advance width="620"/>
  <unicode hex="00DE"/>
  <outline>
    <contour>
      <point x="29" y="0" type="line"/>
      <point x="74" y="0" type="line"/>
      <point x="109" y="164" type="line"/>
      <point x="360" y="164" type="line" smooth="yes"/>
      <point x="505" y="164"/>
      <point x="603" y="256"/>
      <point x="603" y="382" type="curve" smooth="yes"/>
      <point x="603" y="491"/>
      <point x="526" y="555"/>
      <point x="404" y="555" type="curve" smooth="yes"/>
      <point x="192" y="555" type="line"/>
      <point x="223" y="700" type="line"/>
      <point x="178" y="700" type="line"/>
    </contour>
    <contour>
      <point x="118" y="207" type="line"/>
      <point x="183" y="512" type="line"/>
      <point x="405" y="512" type="line" smooth="yes"/>
      <point x="500" y="512"/>
      <point x="557" y="466"/>
      <point x="557" y="380" type="curve" smooth="yes"/>
      <point x="557" y="281"/>
      <point x="477" y="207"/>
      <point x="360" y="207" type="curve" smooth="yes"/>
    </contour>
  </outline>
</glyph>
<glyph name="ae" format="2">
  <advance width="866"/>
  <unicode hex="00E6"/>
  <outline>
    <contour>
      <point x="187" y="-10" type="curve" smooth="yes"/>
      <point x="268" y="-10"/>
      <point x="348" y="22"/>
      <point x="409" y="85" type="curve"/>
      <point x="449" y="27"/>
      <point x="514" y="-10"/>
      <point x="588" y="-10" type="curve" smooth="yes"/>
      <point x="648" y="-10"/>
      <point x="712" y="8"/>
      <point x="761" y="40" type="curve"/>
      <point x="737" y="76" type="line"/>
      <point x="693" y="49"/>
      <point x="642" y="32"/>
      <point x="590" y="32" type="curve" smooth="yes"/>
      <point x="484" y="32"/>
      <point x="407" y="117"/>
      <point x="412" y="234" type="curve"/>
      <point x="824" y="234" type="line"/>
      <point x="825" y="242"/>
      <point x="827" y="273"/>
      <point x="827" y="280" type="curve" smooth="yes"/>
      <point x="827" y="407"/>
      <point x="747" y="502"/>
      <point x="631" y="502" type="curve" smooth="yes"/>
      <point x="548" y="502"/>
      <point x="474" y="460"/>
      <point x="425" y="395" type="curve"/>
      <point x="412" y="467"/>
      <point x="350" y="502"/>
      <point x="263" y="502" type="curve" smooth="yes"/>
      <point x="211" y="502"/>
      <point x="159" y="489"/>
      <point x="91" y="459" type="curve"/>
      <point x="106" y="421" type="line"/>
      <point x="168" y="449"/>
      <point x="216" y="463"/>
      <point x="267" y="463" type="curve" smooth="yes"/>
      <point x="364" y="463"/>
      <point x="400" y="409"/>
      <point x="381" y="314" type="curve" smooth="yes"/>
      <point x="367" y="245" type="line"/>
      <point x="326" y="273"/>
      <point x="272" y="289"/>
      <point x="217" y="289" type="curve" smooth="yes"/>
      <point x="104" y="289"/>
      <point x="20" y="227"/>
      <point x="20" y="130" type="curve" smooth="yes"/>
      <point x="20" y="45"/>
      <point x="87" y="-10"/>
    </contour>
    <contour>
      <point x="418" y="276" type="line"/>
      <point x="441" y="382"/>
      <point x="526" y="460"/>
      <point x="627" y="460" type="curve" smooth="yes"/>
      <point x="727" y="460"/>
      <point x="789" y="375"/>
      <point x="784" y="276" type="curve"/>
    </contour>
    <contour>
      <point x="195" y="29" type="curve" smooth="yes"/>
      <point x="108" y="29"/>
      <point x="63" y="72"/>
      <point x="63" y="132" type="curve" smooth="yes"/>
      <point x="63" y="206"/>
      <point x="126" y="251"/>
      <point x="213" y="251" type="curve" smooth="yes"/>
      <point x="276" y="251"/>
      <point x="329" y="233"/>
      <point x="369" y="198" type="curve"/>
      <point x="371" y="169"/>
      <point x="379" y="141"/>
      <point x="391" y="117" type="curve"/>
      <point x="334" y="61"/>
      <point x="270" y="29"/>
    </contour>
  </outline>
</glyph>
<glyph name="divide" format="2">
  <advance width="600"/>
  <unicode hex="00F7"/>
  <outline>
    <contour>
      <point x="132" y="337" type="line"/>
      <point x="509" y="337" type="line"/>
      <point x="517" y="378" type="line"/>
      <point x="140" y="378" type="line"/>
    </contour>
    <contour>
      <point x="282" y="147" type="curve" smooth="yes"/>
      <point x="305" y="147"/>
      <point x="323" y="165"/>
      <point x="323" y="188" type="curve" smooth="yes"/>
      <point x="323" y="207"/>
      <point x="308" y="222"/>
      <point x="290" y="222" type="curve" smooth="yes"/>
      <point x="267" y="222"/>
      <point x="249" y="204"/>
      <point x="249" y="181" type="curve" smooth="yes"/>
      <point x="249" y="162"/>
      <point x="264" y="147"/>
    </contour>
    <contour>
      <point x="356" y="492" type="curve" smooth="yes"/>
      <point x="379" y="492"/>
      <point x="397" y="510"/>
      <point x="397" y="533" type="curve" smooth="yes"/>
      <point x="397" y="551"/>
      <point x="382" y="566"/>
      <point x="364" y="566" type="curve" smooth="yes"/>
      <point x="341" y="566"/>
      <point x="323" y="548"/>
      <point x="323" y="525" type="curve" smooth="yes"/>
      <point x="323" y="507"/>
      <point x="338" y="492"/>
    </contour>
  </outline>
</glyph>
<glyph name="oslash" format="2">
  <advance width="568"/>
  <unicode hex="00F8"/>
  <outline>
    <contour>
      <point x="258" y="-10" type="curve" smooth="yes"/>
      <point x="404" y="-10"/>
      <point x="527" y="120"/>
      <point x="527" y="273" type="curve" smooth="yes"/>
      <point x="527" y="326"/>
      <point x="511" y="374"/>
      <point x="484" y="412" type="curve"/>
      <point x="566" y="492" type="line"/>
      <point x="509" y="492" type="line"/>
      <point x="458" y="442" type="line"/>
      <point x="420" y="480"/>
      <point x="369" y="502"/>
      <point x="312" y="502" type="curve" smooth="yes"/>
      <point x="167" y="502"/>
      <point x="43" y="371"/>
      <point x="43" y="219" type="curve" smooth="yes"/>
      <point x="43" y="166"/>
      <point x="59" y="118"/>
      <point x="86" y="80" type="curve"/>
      <point x="4" y="0" type="line"/>
      <point x="60" y="0" type="line"/>
      <point x="111" y="50" type="line"/>
      <point x="149" y="12"/>
      <point x="201" y="-10"/>
    </contour>
    <contour>
      <point x="117" y="110" type="line"/>
      <point x="98" y="141"/>
      <point x="87" y="178"/>
      <point x="87" y="219" type="curve" smooth="yes"/>
      <point x="87" y="347"/>
      <point x="191" y="460"/>
      <point x="308" y="460" type="curve" smooth="yes"/>
      <point x="355" y="460"/>
      <point x="397" y="442"/>
      <point x="427" y="413" type="curve"/>
    </contour>
    <contour>
      <point x="262" y="32" type="curve" smooth="yes"/>
      <point x="214" y="32"/>
      <point x="173" y="50"/>
      <point x="142" y="80" type="curve"/>
      <point x="453" y="382" type="line"/>
      <point x="472" y="352"/>
      <point x="483" y="314"/>
      <point x="483" y="273" type="curve" smooth="yes"/>
      <point x="483" y="145"/>
      <point x="379" y="32"/>
    </contour>
  </outline>
</glyph>
<glyph name="Aogonek" format="2">
  <advance width="642"/>
  <unicode hex="0104"/>
  <outline>
    <contour>
      <point x="-44" y="0" type="line"/>
      <point x="7" y="0" type="line"/>
      <point x="152" y="237" type="line"/>
      <point x="492" y="237" type="line"/>
      <point x="538" y="0" type="line"/>
      <point x="539" y="0" type="line"/>
      <point x="455" y="-38"/>
      <point x="405" y="-94"/>
      <point x="405" y="-149" type="curve" smooth="yes"/>
      <point x="405" y="-193"/>
      <point x="440" y="-222"/>
      <point x="492" y="-222" type="curve" smooth="yes"/>
      <point x="514" y="-222"/>
      <point x="533" y="-217"/>
      <point x="551" y="-209" type="curve"/>
      <point x="547" y="-178" type="line"/>
      <point x="532" y="-185"/>
      <point x="514" y="-189"/>
      <point x="498" y="-189" type="curve" smooth="yes"/>
      <point x="466" y="-189"/>
      <point x="444" y="-170"/>
      <point x="444" y="-143" type="curve" smooth="yes"/>
      <point x="444" y="-99"/>
      <point x="475" y="-55"/>
      <point x="583" y="0" type="curve"/>
      <point x="446" y="700" type="line"/>
      <point x="387" y="700" type="line"/>
    </contour>
    <contour>
      <point x="177" y="278" type="line"/>
      <point x="410" y="659" type="line"/>
      <point x="484" y="278" type="line"/>
    </contour>
  </outline>
</glyph>
<glyph name="Dcroat" format="2">
  <advance width="699"/>
  <unicode hex="0110"/>
  <outline>
    <contour>
      <point x="29" y="0" type="line"/>
      <point x="267" y="0" type="line" smooth="yes"/>
      <point x="499" y="0"/>
      <point x="678" y="171"/>
      <point x="678" y="392" type="curve" smooth="yes"/>
      <point x="678" y="579"/>
      <point x="554" y="700"/>
      <point x="363" y="700" type="curve" smooth="yes"/>
      <point x="178" y="700" type="line"/>
      <point x="109" y="375" type="line"/>
      <point x="38" y="375" type="line"/>
      <point x="30" y="334" type="line"/>
      <point x="100" y="334" type="line"/>
    </contour>
    <contour>
      <point x="83" y="43" type="line"/>
      <point x="145" y="334" type="line"/>
      <point x="348" y="334" type="line"/>
      <point x="356" y="375" type="line"/>
      <point x="154" y="375" type="line"/>
      <point x="214" y="657" type="line"/>
      <point x="365" y="657" type="line" smooth="yes"/>
      <point x="526" y="657"/>
      <point x="632" y="553"/>
      <point x="632" y="394" type="curve" smooth="yes"/>
      <point x="632" y="199"/>
      <point x="473" y="43"/>
      <point x="275" y="43" type="curve" smooth="yes"/>
    </contour>
  </outline>
</glyph>
<glyph name="dcroat" format="2">
  <advance width="560"/>
  <unicode hex="0111"/>
  <outline>
    <contour>
      <point x="259" y="-10" type="curve" smooth="yes"/>
      <point x="311" y="-10"/>
      <point x="361" y="7"/>
      <point x="406" y="41" type="curve"/>
      <point x="397" y="0" type="line"/>
      <point x="440" y="0" type="line"/>
      <point x="565" y="590" type="line"/>
      <point x="631" y="590" type="line"/>
      <point x="639" y="627" type="line"/>
      <point x="573" y="627" type="line"/>
      <point x="591" y="711" type="line"/>
      <point x="546" y="700" type="line"/>
      <point x="530" y="627" type="line"/>
      <point x="358" y="627" type="line"/>
      <point x="350" y="590" type="line"/>
      <point x="522" y="590" type="line"/>
      <point x="486" y="420" type="line"/>
      <point x="448" y="471"/>
      <point x="384" y="502"/>
      <point x="312" y="502" type="curve" smooth="yes"/>
      <point x="164" y="502"/>
      <point x="43" y="374"/>
      <point x="43" y="218" type="curve" smooth="yes"/>
      <point x="43" y="87"/>
      <point x="134" y="-10"/>
    </contour>
    <contour>
      <point x="266" y="32" type="curve" smooth="yes"/>
      <point x="161" y="32"/>
      <point x="87" y="110"/>
      <point x="87" y="221" type="curve" smooth="yes"/>
      <point x="87" y="353"/>
      <point x="188" y="460"/>
      <point x="313" y="460" type="curve" smooth="yes"/>
      <point x="384" y="460"/>
      <point x="449" y="421"/>
      <point x="475" y="366" type="curve"/>
      <point x="417" y="95" type="line"/>
      <point x="376" y="55"/>
      <point x="322" y="32"/>
    </contour>
  </outline>
</glyph>
<glyph name="Eogonek" format="2">
  <advance width="590"/>
  <unicode hex="0118"/>
  <outline>
    <contour>
      <point x="417" y="-222" type="curve" smooth="yes"/>
      <point x="437" y="-222"/>
      <point x="456" y="-218"/>
      <point x="476" y="-209" type="curve"/>
      <point x="472" y="-178" type="line"/>
      <point x="457" y="-185"/>
      <point x="439" y="-189"/>
      <point x="423" y="-189" type="curve" smooth="yes"/>
      <point x="391" y="-189"/>
      <point x="369" y="-170"/>
      <point x="369" y="-143" type="curve" smooth="yes"/>
      <point x="369" y="-99"/>
      <point x="400" y="-55"/>
      <point x="508" y="0" type="curve"/>
      <point x="517" y="43" type="line"/>
      <point x="83" y="43" type="line"/>
      <point x="145" y="332" type="line"/>
      <point x="426" y="332" type="line"/>
      <point x="435" y="375" type="line"/>
      <point x="154" y="375" type="line"/>
      <point x="214" y="657" type="line"/>
      <point x="644" y="657" type="line"/>
      <point x="653" y="700" type="line"/>
      <point x="178" y="700" type="line"/>
      <point x="29" y="0" type="line"/>
      <point x="453" y="0" type="line"/>
      <point x="360" y="-54"/>
      <point x="330" y="-105"/>
      <point x="330" y="-149" type="curve" smooth="yes"/>
      <point x="330" y="-193"/>
      <point x="365" y="-222"/>
    </contour>
  </outline>
</glyph>
<glyph name="eogonek" format="2">
  <advance width="539"/>
  <unicode hex="0119"/>
  <outline>
    <contour>
      <point x="249" y="-222" type="curve" smooth="yes"/>
      <point x="271" y="-222"/>
      <point x="290" y="-217"/>
      <point x="308" y="-209" type="curve"/>
      <point x="304" y="-178" type="line"/>
      <point x="289" y="-185"/>
      <point x="271" y="-189"/>
      <point x="255" y="-189" type="curve" smooth="yes"/>
      <point x="223" y="-189"/>
      <point x="201" y="-170"/>
      <point x="201" y="-143" type="curve" smooth="yes"/>
      <point x="201" y="-99"/>
      <point x="232" y="-55"/>
      <point x="339" y="-1" type="curve"/>
      <point x="374" y="7"/>
      <point x="407" y="21"/>
      <point x="436" y="40" type="curve"/>
      <point x="412" y="76" type="line"/>
      <point x="368" y="49"/>
      <point x="317" y="32"/>
      <point x="265" y="32" type="curve" smooth="yes"/>
      <point x="159" y="32"/>
      <point x="82" y="121"/>
      <point x="87" y="234" type="curve"/>
      <point x="499" y="234" type="line"/>
      <point x="500" y="242"/>
      <point x="502" y="273"/>
      <point x="502" y="280" type="curve" smooth="yes"/>
      <point x="502" y="407"/>
      <point x="422" y="502"/>
      <point x="306" y="502" type="curve" smooth="yes"/>
      <point x="161" y="502"/>
      <point x="43" y="375"/>
      <point x="43" y="219" type="curve" smooth="yes"/>
      <point x="43" y="88"/>
      <point x="144" y="-12"/>
      <point x="268" y="-10" type="curve"/>
      <point x="188" y="-61"/>
      <point x="162" y="-108"/>
      <point x="162" y="-149" type="curve" smooth="yes"/>
      <point x="162" y="-187"/>
      <point x="190" y="-222"/>
    </contour>
    <contour>
      <point x="93" y="276" type="line"/>
      <point x="116" y="382"/>
      <point x="201" y="460"/>
      <point x="302" y="460" type="curve" smooth="yes"/>
      <point x="402" y="460"/>
      <point x="463" y="375"/>
      <point x="459" y="276" type="curve"/>
    </contour>
  </outline>
</glyph>
<glyph name="Hbar" format="2">
  <advance width="690"/>
  <unicode hex="0126"/>
  <outline>
    <contour>
      <point x="29" y="0" type="line"/>
      <point x="74" y="0" type="line"/>
      <point x="145" y="332" type="line"/>
      <point x="583" y="332" type="line"/>
      <point x="512" y="0" type="line"/>
      <point x="557" y="0" type="line"/>
      <point x="670" y="529" type="line"/>
      <point x="737" y="529" type="line"/>
      <point x="746" y="570" type="line"/>
      <point x="678" y="570" type="line"/>
      <point x="706" y="700" type="line"/>
      <point x="661" y="700" type="line"/>
      <point x="633" y="570" type="line"/>
      <point x="195" y="570" type="line"/>
      <point x="223" y="700" type="line"/>
      <point x="178" y="700" type="line"/>
      <point x="150" y="570" type="line"/>
      <point x="82" y="570" type="line"/>
      <point x="73" y="529" type="line"/>
      <point x="142" y="529" type="line"/>
    </contour>
    <contour>
      <point x="153" y="373" type="line"/>
      <point x="186" y="529" type="line"/>
      <point x="624" y="529" type="line"/>
      <point x="591" y="373" type="line"/>
    </contour>
  </outline>
</glyph>
<glyph name="iogonek" format="2">
  <advance width="179"/>
  <unicode hex="012F"/>
  <outline>
    <contour>
      <point x="170" y="603" type="curve" smooth="yes"/>
      <point x="193" y="603"/>
      <point x="211" y="622"/>
      <point x="211" y="645" type="curve" smooth="yes"/>
      <point x="211" y="664"/>
      <point x="196" y="679"/>
      <point x="177" y="679" type="curve" smooth="yes"/>
      <point x="155" y="679"/>
      <point x="136" y="661"/>
      <point x="136" y="638" type="curve" smooth="yes"/>
      <point x="136" y="618"/>
      <point x="151" y="603"/>
    </contour>
    <contour>
      <point x="-32" y="-222" type="curve" smooth="yes"/>
      <point x="-12" y="-222"/>
      <point x="7" y="-218"/>
      <point x="27" y="-209" type="curve"/>
      <point x="23" y="-178" type="line"/>
      <point x="8" y="-185"/>
      <point x="-10" y="-189"/>
      <point x="-26" y="-189" type="curve" smooth="yes"/>
      <point x="-58" y="-189"/>
      <point x="-80" y="-170"/>
      <point x="-80" y="-143" type="curve" smooth="yes"/>
      <point x="-80" y="-93"/>
      <point x="-37" y="-49"/>
      <point x="59" y="0" type="curve"/>
      <point x="164" y="492" type="line"/>
      <point x="121" y="492" type="line"/>
      <point x="16" y="0" type="line"/>
      <point x="17" y="0" type="line"/>
      <point x="-68" y="-38"/>
      <point x="-119" y="-94"/>
      <point x="-119" y="-149" type="curve" smooth="yes"/>
      <point x="-119" y="-193"/>
      <point x="-84" y="-222"/>
    </contour>
  </outline>
</glyph>
<glyph name="dotlessi" format="2">
  <advance width="178"/>
  <unicode hex="0131"/>
  <guideline x="142" y="492" angle="0.0" color="0.999,0.001,0.001,0.999" identifier="RYE7gOuEm7"/>
  <anchor x="142" y="492" name="top"/>
  <anchor x="59" y="0" name="bottom"/>
  <outline>
    <contour>
      <point x="16" y="0" type="line"/>
      <point x="59" y="0" type="line"/>
      <point x="164" y="492" type="line"/>
      <point x="121" y="492" type="line"/>
    </contour>
  </outline>
</glyph>
<glyph name="kgreenlandic" format="2">
  <advance width="453"/>
  <unicode hex="0138"/>
  <guideline x="107" y="430" angle="78.0" identifier="dk0cFixnh8"/>
  <outline>
    <contour>
      <point x="16" y="0" type="line"/>
      <point x="59" y="0" type="line"/>
      <point x="111" y="245" type="line"/>
      <point x="343" y="0" type="line"/>
      <point x="402" y="0" type="line"/>
      <point x="157" y="256" type="line"/>
      <point x="504" y="492" type="line"/>
      <point x="433" y="492" type="line"/>
      <point x="117" y="274" type="line"/>
      <point x="164" y="492" type="line"/>
      <point x="121" y="492" type="line"/>
    </contour>
  </outline>
</glyph>
<glyph name="Lslash" format="2">
  <advance width="590"/>
  <unicode hex="0141"/>
  <outline>
    <contour>
      <point x="38" y="0" type="line"/>
      <point x="507" y="0" type="line"/>
      <point x="516" y="43" type="line"/>
      <point x="92" y="43" type="line"/>
      <point x="142" y="278" type="line"/>
      <point x="386" y="451" type="line"/>
      <point x="397" y="506" type="line"/>
      <point x="154" y="334" type="line"/>
      <point x="232" y="700" type="line"/>
      <point x="187" y="700" type="line"/>
      <point x="101" y="297" type="line"/>
      <point x="7" y="230" type="line"/>
      <point x="-4" y="175" type="line"/>
      <point x="89" y="241" type="line"/>
    </contour>
  </outline>
</glyph>
<glyph name="lslash" format="2">
  <advance width="214"/>
  <unicode hex="0142"/>
  <outline>
    <contour>
      <point x="36" y="0" type="line"/>
      <point x="79" y="0" type="line"/>
      <point x="159" y="377" type="line"/>
      <point x="256" y="449" type="line"/>
      <point x="267" y="500" type="line"/>
      <point x="170" y="428" type="line"/>
      <point x="230" y="711" type="line"/>
      <point x="185" y="700" type="line"/>
      <point x="119" y="391" type="line"/>
      <point x="32" y="326" type="line"/>
      <point x="21" y="274" type="line"/>
      <point x="108" y="339" type="line"/>
    </contour>
  </outline>
</glyph>
<glyph name="Eng" format="2">
  <advance width="699"/>
  <unicode hex="014A"/>
  <outline>
    <contour>
      <point x="419" y="-214" type="curve" smooth="yes"/>
      <point x="484" y="-214"/>
      <point x="530" y="-173"/>
      <point x="544" y="-105" type="curve" smooth="yes"/>
      <point x="715" y="700" type="line"/>
      <point x="672" y="700" type="line"/>
      <point x="539" y="76" type="line"/>
      <point x="223" y="700" type="line"/>
      <point x="178" y="700" type="line"/>
      <point x="29" y="0" type="line"/>
      <point x="72" y="0" type="line"/>
      <point x="208" y="638" type="line"/>
      <point x="526" y="11" type="line"/>
      <point x="503" y="-95" type="line" smooth="yes"/>
      <point x="492" y="-146"/>
      <point x="469" y="-171"/>
      <point x="427" y="-171" type="curve" smooth="yes"/>
      <point x="414" y="-171"/>
      <point x="400" y="-170"/>
      <point x="388" y="-165" type="curve"/>
      <point x="379" y="-209" type="line"/>
      <point x="392" y="-212"/>
      <point x="406" y="-214"/>
    </contour>
  </outline>
</glyph>
<glyph name="eng" format="2">
  <advance width="519"/>
  <unicode hex="014B"/>
  <outline>
    <contour>
      <point x="256" y="-214" type="curve" smooth="yes"/>
      <point x="321" y="-214"/>
      <point x="367" y="-173"/>
      <point x="381" y="-105" type="curve" smooth="yes"/>
      <point x="466" y="297" type="line" smooth="yes"/>
      <point x="492" y="420"/>
      <point x="420" y="502"/>
      <point x="308" y="502" type="curve" smooth="yes"/>
      <point x="248" y="502"/>
      <point x="196" y="480"/>
      <point x="152" y="434" type="curve"/>
      <point x="164" y="492" type="line"/>
      <point x="121" y="492" type="line"/>
      <point x="16" y="0" type="line"/>
      <point x="59" y="0" type="line"/>
      <point x="140" y="380" type="line"/>
      <point x="179" y="430"/>
      <point x="237" y="461"/>
      <point x="300" y="461" type="curve" smooth="yes"/>
      <point x="395" y="461"/>
      <point x="444" y="395"/>
      <point x="422" y="291" type="curve" smooth="yes"/>
      <point x="340" y="-95" type="line" smooth="yes"/>
      <point x="329" y="-147"/>
      <point x="306" y="-171"/>
      <point x="264" y="-171" type="curve" smooth="yes"/>
      <point x="251" y="-171"/>
      <point x="237" y="-170"/>
      <point x="225" y="-165" type="curve"/>
      <point x="216" y="-209" type="line"/>
      <point x="229" y="-212"/>
      <point x="243" y="-214"/>
    </contour>
  </outline>
</glyph>
<glyph name="oe" format="2">
  <advance width="979"/>
  <unicode hex="0153"/>
  <outline>
    <contour>
      <point x="258" y="-10" type="curve" smooth="yes"/>
      <point x="360" y="-10"/>
      <point x="451" y="55"/>
      <point x="496" y="147" type="curve"/>
      <point x="524" y="54"/>
      <point x="607" y="-10"/>
      <point x="703" y="-10" type="curve" smooth="yes"/>
      <point x="763" y="-10"/>
      <point x="827" y="8"/>
      <point x="876" y="40" type="curve"/>
      <point x="852" y="76" type="line"/>
      <point x="808" y="49"/>
      <point x="757" y="32"/>
      <point x="705" y="32" type="curve" smooth="yes"/>
      <point x="599" y="32"/>
      <point x="522" y="117"/>
      <point x="527" y="234" type="curve"/>
      <point x="939" y="234" type="line"/>
      <point x="940" y="242"/>
      <point x="942" y="273"/>
      <point x="942" y="280" type="curve" smooth="yes"/>
      <point x="942" y="407"/>
      <point x="862" y="502"/>
      <point x="746" y="502" type="curve"/>
      <point x="645" y="502"/>
      <point x="557" y="439"/>
      <point x="514" y="348" type="curve"/>
      <point x="485" y="438"/>
      <point x="407" y="502"/>
      <point x="312" y="502" type="curve" smooth="yes"/>
      <point x="167" y="502"/>
      <point x="43" y="371"/>
      <point x="43" y="219" type="curve" smooth="yes"/>
      <point x="43" y="90"/>
      <point x="137" y="-10"/>
    </contour>
    <contour>
      <point x="533" y="276" type="line"/>
      <point x="556" y="382"/>
      <point x="641" y="460"/>
      <point x="742" y="460" type="curve"/>
      <point x="842" y="460"/>
      <point x="904" y="375"/>
      <point x="899" y="276" type="curve"/>
    </contour>
    <contour>
      <point x="262" y="32" type="curve" smooth="yes"/>
      <point x="161" y="32"/>
      <point x="87" y="112"/>
      <point x="87" y="219" type="curve" smooth="yes"/>
      <point x="87" y="347"/>
      <point x="191" y="460"/>
      <point x="308" y="460" type="curve" smooth="yes"/>
      <point x="409" y="460"/>
      <point x="483" y="380"/>
      <point x="483" y="273" type="curve" smooth="yes"/>
      <point x="483" y="145"/>
      <point x="379" y="32"/>
    </contour>
  </outline>
</glyph>
<glyph name="Scedilla" format="2">
  <advance width="576"/>
  <unicode hex="015E"/>
  <outline>
    <contour>
      <point x="239" y="-224" type="curve" smooth="yes"/>
      <point x="302" y="-224"/>
      <point x="350" y="-186"/>
      <point x="350" y="-130" type="curve" smooth="yes"/>
      <point x="350" y="-92"/>
      <point x="323" y="-65"/>
      <point x="271" y="-60" type="curve"/>
      <point x="295" y="-11" type="line"/>
      <point x="441" y="-7"/>
      <point x="542" y="75"/>
      <point x="542" y="196" type="curve" smooth="yes"/>
      <point x="542" y="288"/>
      <point x="483" y="339"/>
      <point x="350" y="374" type="curve" smooth="yes"/>
      <point x="271" y="395" type="line" smooth="yes"/>
      <point x="173" y="421"/>
      <point x="131" y="460"/>
      <point x="131" y="523" type="curve" smooth="yes"/>
      <point x="131" y="610"/>
      <point x="203" y="668"/>
      <point x="319" y="668" type="curve" smooth="yes"/>
      <point x="402" y="668"/>
      <point x="488" y="631"/>
      <point x="558" y="566" type="curve"/>
      <point x="588" y="598" type="line"/>
      <point x="511" y="670"/>
      <point x="413" y="711"/>
      <point x="319" y="711" type="curve" smooth="yes"/>
      <point x="178" y="711"/>
      <point x="85" y="637"/>
      <point x="85" y="523" type="curve" smooth="yes"/>
      <point x="85" y="436"/>
      <point x="142" y="382"/>
      <point x="259" y="351" type="curve" smooth="yes"/>
      <point x="338" y="330" type="line" smooth="yes"/>
      <point x="453" y="299"/>
      <point x="496" y="264"/>
      <point x="496" y="196" type="curve" smooth="yes"/>
      <point x="496" y="99"/>
      <point x="411" y="32"/>
      <point x="285" y="32" type="curve" smooth="yes"/>
      <point x="186" y="32"/>
      <point x="101" y="80"/>
      <point x="43" y="169" type="curve"/>
      <point x="5" y="145" type="line"/>
      <point x="67" y="51"/>
      <point x="158" y="-4"/>
      <point x="263" y="-10" type="curve"/>
      <point x="225" y="-89" type="line"/>
      <point x="249" y="-89" type="line" smooth="yes"/>
      <point x="288" y="-89"/>
      <point x="316" y="-105"/>
      <point x="316" y="-135" type="curve" smooth="yes"/>
      <point x="316" y="-168"/>
      <point x="288" y="-193"/>
      <point x="239" y="-193" type="curve" smooth="yes"/>
      <point x="208" y="-193"/>
      <point x="184" y="-182"/>
      <point x="161" y="-157" type="curve"/>
      <point x="135" y="-180" type="line"/>
      <point x="156" y="-207"/>
      <point x="196" y="-224"/>
    </contour>
  </outline>
</glyph>
<glyph name="scedilla" format="2">
  <advance width="417"/>
  <unicode hex="015F"/>
  <outline>
    <contour>
      <point x="142" y="-224" type="curve" smooth="yes"/>
      <point x="205" y="-224"/>
      <point x="253" y="-186"/>
      <point x="253" y="-130" type="curve" smooth="yes"/>
      <point x="253" y="-92"/>
      <point x="226" y="-65"/>
      <point x="174" y="-60" type="curve"/>
      <point x="197" y="-12" type="line"/>
      <point x="300" y="-9"/>
      <point x="378" y="55"/>
      <point x="378" y="140" type="curve" smooth="yes"/>
      <point x="378" y="205"/>
      <point x="339" y="241"/>
      <point x="253" y="261" type="curve" smooth="yes"/>
      <point x="176" y="279" type="line" smooth="yes"/>
      <point x="111" y="294"/>
      <point x="89" y="316"/>
      <point x="89" y="358" type="curve" smooth="yes"/>
      <point x="89" y="418"/>
      <point x="141" y="460"/>
      <point x="218" y="460" type="curve" smooth="yes"/>
      <point x="276" y="460"/>
      <point x="328" y="436"/>
      <point x="379" y="389" type="curve"/>
      <point x="409" y="421" type="line"/>
      <point x="352" y="474"/>
      <point x="285" y="502"/>
      <point x="218" y="502" type="curve" smooth="yes"/>
      <point x="117" y="502"/>
      <point x="45" y="443"/>
      <point x="45" y="358" type="curve" smooth="yes"/>
      <point x="45" y="294"/>
      <point x="82" y="257"/>
      <point x="166" y="237" type="curve" smooth="yes"/>
      <point x="243" y="219" type="line" smooth="yes"/>
      <point x="310" y="203"/>
      <point x="334" y="182"/>
      <point x="334" y="140" type="curve" smooth="yes"/>
      <point x="334" y="79"/>
      <point x="273" y="32"/>
      <point x="189" y="32" type="curve" smooth="yes"/>
      <point x="124" y="32"/>
      <point x="63" y="61"/>
      <point x="26" y="111" type="curve"/>
      <point x="-9" y="85" type="line"/>
      <point x="32" y="30"/>
      <point x="96" y="-5"/>
      <point x="166" y="-11" type="curve"/>
      <point x="128" y="-89" type="line"/>
      <point x="152" y="-89" type="line" smooth="yes"/>
      <point x="191" y="-89"/>
      <point x="219" y="-105"/>
      <point x="219" y="-135" type="curve" smooth="yes"/>
      <point x="219" y="-168"/>
      <point x="191" y="-193"/>
      <point x="142" y="-193" type="curve" smooth="yes"/>
      <point x="111" y="-193"/>
      <point x="87" y="-182"/>
      <point x="64" y="-157" type="curve"/>
      <point x="38" y="-180" type="line"/>
      <point x="59" y="-207"/>
      <point x="99" y="-224"/>
    </contour>
  </outline>
</glyph>
<glyph name="tcaron" format="2">
  <advance width="330"/>
  <unicode hex="0165"/>
  <outline>
    <contour>
      <point x="199" y="-10" type="curve" smooth="yes"/>
      <point x="220" y="-10"/>
      <point x="241" y="-7"/>
      <point x="262" y="-1" type="curve"/>
      <point x="271" y="42" type="line"/>
      <point x="244" y="34"/>
      <point x="230" y="31"/>
      <point x="215" y="31" type="curve" smooth="yes"/>
      <point x="147" y="31"/>
      <point x="125" y="55"/>
      <point x="138" y="115" type="curve" smooth="yes"/>
      <point x="210" y="452" type="line"/>
      <point x="356" y="452" type="line"/>
      <point x="365" y="492" type="line"/>
      <point x="219" y="492" type="line"/>
      <point x="248" y="630" type="line"/>
      <point x="202" y="616" type="line"/>
      <point x="175" y="492" type="line"/>
      <point x="69" y="492" type="line"/>
      <point x="60" y="452" type="line"/>
      <point x="167" y="452" type="line"/>
      <point x="93" y="106" type="line" smooth="yes"/>
      <point x="77" y="32"/>
      <point x="116" y="-10"/>
    </contour>
    <contour>
      <point x="295" y="552" type="line"/>
      <point x="325" y="552" type="line"/>
      <point x="379" y="711" type="line"/>
      <point x="329" y="700" type="line"/>
    </contour>
  </outline>
</glyph>
<glyph name="Tbar" format="2">
  <advance width="588"/>
  <unicode hex="0166"/>
  <outline>
    <contour>
      <point x="220" y="0" type="line"/>
      <point x="265" y="0" type="line"/>
      <point x="336" y="334" type="line"/>
      <point x="496" y="334" type="line"/>
      <point x="504" y="375" type="line"/>
      <point x="345" y="375" type="line"/>
      <point x="405" y="657" type="line"/>
      <point x="660" y="657" type="line"/>
      <point x="669" y="700" type="line"/>
      <point x="113" y="700" type="line"/>
      <point x="104" y="657" type="line"/>
      <point x="360" y="657" type="line"/>
      <point x="300" y="375" type="line"/>
      <point x="139" y="375" type="line"/>
      <point x="131" y="334" type="line"/>
      <point x="291" y="334" type="line"/>
    </contour>
  </outline>
</glyph>
<glyph name="tbar" format="2">
  <advance width="330"/>
  <unicode hex="0167"/>
  <guideline x="49" y="393" angle="78.0" identifier="XsVl7iXjwV"/>
  <guideline x="333" y="339" angle="78.0" identifier="gSrNaqjBF5"/>
  <outline>
    <contour>
      <point x="199" y="-10" type="curve" smooth="yes"/>
      <point x="220" y="-10"/>
      <point x="241" y="-7"/>
      <point x="262" y="-1" type="curve"/>
      <point x="271" y="42" type="line"/>
      <point x="244" y="34"/>
      <point x="230" y="31"/>
      <point x="215" y="31" type="curve" smooth="yes"/>
      <point x="147" y="31"/>
      <point x="125" y="55"/>
      <point x="138" y="115" type="curve" smooth="yes"/>
      <point x="171" y="269" type="line"/>
      <point x="318" y="269" type="line"/>
      <point x="326" y="306" type="line"/>
      <point x="179" y="306" type="line"/>
      <point x="210" y="452" type="line"/>
      <point x="356" y="452" type="line"/>
      <point x="365" y="492" type="line"/>
      <point x="219" y="492" type="line"/>
      <point x="248" y="630" type="line"/>
      <point x="202" y="616" type="line"/>
      <point x="175" y="492" type="line"/>
      <point x="69" y="492" type="line"/>
      <point x="60" y="452" type="line"/>
      <point x="167" y="452" type="line"/>
      <point x="136" y="306" type="line"/>
      <point x="31" y="306" type="line"/>
      <point x="23" y="269" type="line"/>
      <point x="128" y="269" type="line"/>
      <point x="93" y="106" type="line" smooth="yes"/>
      <point x="77" y="32"/>
      <point x="116" y="-10"/>
    </contour>
  </outline>
</glyph>
<glyph name="uogonek" format="2">
  <advance width="519"/>
  <unicode hex="0173"/>
  <outline>
    <contour>
      <point x="308" y="-222" type="curve" smooth="yes"/>
      <point x="330" y="-222"/>
      <point x="349" y="-217"/>
      <point x="367" y="-209" type="curve"/>
      <point x="363" y="-178" type="line"/>
      <point x="348" y="-185"/>
      <point x="330" y="-189"/>
      <point x="314" y="-189" type="curve" smooth="yes"/>
      <point x="282" y="-189"/>
      <point x="260" y="-170"/>
      <point x="260" y="-143" type="curve" smooth="yes"/>
      <point x="260" y="-99"/>
      <point x="291" y="-55"/>
      <point x="399" y="0" type="curve"/>
      <point x="504" y="492" type="line"/>
      <point x="461" y="492" type="line"/>
      <point x="380" y="113" type="line"/>
      <point x="341" y="62"/>
      <point x="283" y="31"/>
      <point x="220" y="31" type="curve" smooth="yes"/>
      <point x="126" y="31"/>
      <point x="76" y="98"/>
      <point x="98" y="202" type="curve" smooth="yes"/>
      <point x="160" y="492" type="line"/>
      <point x="117" y="492" type="line"/>
      <point x="55" y="195" type="line" smooth="yes"/>
      <point x="29" y="72"/>
      <point x="101" y="-10"/>
      <point x="212" y="-10" type="curve" smooth="yes"/>
      <point x="272" y="-10"/>
      <point x="324" y="13"/>
      <point x="368" y="58" type="curve"/>
      <point x="356" y="0" type="line"/>
      <point x="357" y="0" type="line"/>
      <point x="272" y="-38"/>
      <point x="221" y="-94"/>
      <point x="221" y="-149" type="curve" smooth="yes"/>
      <point x="221" y="-193"/>
      <point x="256" y="-222"/>
    </contour>
  </outline>
</glyph>
<glyph name="dotlessj" format="2">
  <advance width="178"/>
  <unicode hex="0237"/>
  <anchor x="142" y="492" name="top"/>
  <outline>
    <contour>
      <point x="-87" y="-214" type="curve" smooth="yes"/>
      <point x="-22" y="-214"/>
      <point x="24" y="-173"/>
      <point x="38" y="-105" type="curve" smooth="yes"/>
      <point x="164" y="492" type="line"/>
      <point x="121" y="492" type="line"/>
      <point x="-3" y="-95" type="line" smooth="yes"/>
      <point x="-14" y="-146"/>
      <point x="-37" y="-171"/>
      <point x="-79" y="-171" type="curve" smooth="yes"/>
      <point x="-92" y="-171"/>
      <point x="-106" y="-170"/>
      <point x="-118" y="-165" type="curve"/>
      <point x="-127" y="-209" type="line"/>
      <point x="-114" y="-212"/>
      <point x="-100" y="-214"/>
    </contour>
  </outline>
</glyph>
<glyph name="uni02BB" format="2">
  <advance width="250"/>
  <unicode hex="02BB"/>
  <outline>
    <contour>
      <point x="288" y="724" type="line"/>
      <point x="250" y="724" type="line"/>
      <point x="144" y="536" type="line"/>
      <point x="197" y="536" type="line"/>
    </contour>
  </outline>
</glyph>
<glyph name="caron" format="2">
  <advance width="600"/>
  <unicode hex="02C7"/>
  <outline>
    <contour>
      <point x="347" y="594" type="line"/>
      <point x="399" y="594" type="line"/>
      <point x="521" y="708" type="line"/>
      <point x="479" y="708" type="line"/>
      <point x="378" y="625" type="line"/>
      <point x="312" y="708" type="line"/>
      <point x="275" y="708" type="line"/>
    </contour>
  </outline>
</glyph>
<glyph name="dotaccent" format="2">
  <advance width="600"/>
  <unicode hex="02D9"/>
  <outline>
    <contour>
      <point x="380" y="603" type="curve" smooth="yes"/>
      <point x="403" y="603"/>
      <point x="421" y="621"/>
      <point x="421" y="645" type="curve" smooth="yes"/>
      <point x="421" y="664"/>
      <point x="406" y="679"/>
      <point x="388" y="679" type="curve" smooth="yes"/>
      <point x="365" y="679"/>
      <point x="347" y="661"/>
      <point x="347" y="638" type="curve" smooth="yes"/>
      <point x="347" y="618"/>
      <point x="362" y="603"/>
    </contour>
  </outline>
</glyph>
<glyph name="ring" format="2">
  <advance width="600"/>
  <unicode hex="02DA"/>
  <outline>
    <contour>
      <point x="379" y="581" type="curve" smooth="yes"/>
      <point x="443" y="581"/>
      <point x="495" y="634"/>
      <point x="495" y="700" type="curve" smooth="yes"/>
      <point x="495" y="752"/>
      <point x="452" y="794"/>
      <point x="400" y="794" type="curve" smooth="yes"/>
      <point x="337" y="794"/>
      <point x="285" y="741"/>
      <point x="285" y="675" type="curve" smooth="yes"/>
      <point x="285" y="623"/>
      <point x="327" y="581"/>
    </contour>
    <contour>
      <point x="381" y="614" type="curve" smooth="yes"/>
      <point x="346" y="614"/>
      <point x="318" y="642"/>
      <point x="318" y="677" type="curve" smooth="yes"/>
      <point x="318" y="723"/>
      <point x="354" y="761"/>
      <point x="399" y="761" type="curve" smooth="yes"/>
      <point x="434" y="761"/>
      <point x="462" y="733"/>
      <point x="462" y="698" type="curve" smooth="yes"/>
      <point x="462" y="652"/>
      <point x="426" y="614"/>
    </contour>
  </outline>
</glyph>
<glyph name="emdash" format="2">
  <advance width="678"/>
  <unicode hex="2014"/>
  <outline>
    <contour>
      <point x="64" y="302" type="line"/>
      <point x="55" y="258" type="line"/>
      <point x="630" y="258" type="line"/>
      <point x="639" y="302" type="line"/>
    </contour>
  </outline>
</glyph>
<glyph name="quoteleft" format="2">
  <advance width="250"/>
  <unicode hex="2018"/>
  <outline>
    <contour>
      <point x="285" y="709" type="line"/>
      <point x="247" y="709" type="line"/>
      <point x="141" y="521" type="line"/>
      <point x="194" y="521" type="line"/>
    </contour>
  </outline>
</glyph>
<glyph name="quotedblleft" format="2">
  <advance width="360"/>
  <unicode hex="201C"/>
  <outline>
    <contour>
      <point x="285" y="709" type="line"/>
      <point x="247" y="709" type="line"/>
      <point x="141" y="521" type="line"/>
      <point x="194" y="521" type="line"/>
    </contour>
    <contour>
      <point x="395" y="709" type="line"/>
      <point x="357" y="709" type="line"/>
      <point x="251" y="521" type="line"/>
      <point x="304" y="521" type="line"/>
    </contour>
  </outline>
</glyph>
<glyph name="dagger" format="2">
  <advance width="405"/>
  <unicode hex="2020"/>
  <outline>
    <contour>
      <point x="128" y="0" type="line"/>
      <point x="172" y="0" type="line"/>
      <point x="269" y="455" type="line"/>
      <point x="395" y="455" type="line"/>
      <point x="404" y="495" type="line"/>
      <point x="277" y="495" type="line"/>
      <point x="321" y="700" type="line"/>
      <point x="277" y="700" type="line"/>
      <point x="233" y="495" type="line"/>
      <point x="108" y="495" type="line"/>
      <point x="99" y="455" type="line"/>
      <point x="225" y="455" type="line"/>
    </contour>
  </outline>
</glyph>
<glyph name="guilsinglleft" format="2">
  <advance width="363"/>
  <unicode hex="2039"/>
  <guideline x="308" y="232" angle="78.0" identifier="tyIis6rW6u"/>
  <outline>
    <contour>
      <point x="364" y="492" type="line"/>
      <point x="310" y="492" type="line"/>
      <point x="35" y="246" type="line"/>
      <point x="209" y="0" type="line"/>
      <point x="255" y="0" type="line"/>
      <point x="84" y="242" type="line"/>
    </contour>
  </outline>
</glyph>
<glyph name="guilsinglright" format="2">
  <advance width="364"/>
  <unicode hex="203A"/>
  <outline>
    <contour>
      <point x="0" y="0" type="line"/>
      <point x="54" y="0" type="line"/>
      <point x="329" y="246" type="line"/>
      <point x="155" y="492" type="line"/>
      <point x="109" y="492" type="line"/>
      <point x="280" y="250" type="line"/>
    </contour>
  </outline>
</glyph>
<glyph name="uni2077" format="2">
  <advance width="283"/>
  <unicode hex="2077"/>
  <outline>
    <contour>
      <point x="75" y="350" type="line"/>
      <point x="118" y="350" type="line"/>
      <point x="364" y="671" type="line"/>
      <point x="369" y="700" type="line"/>
      <point x="112" y="700" type="line"/>
      <point x="106" y="667" type="line"/>
      <point x="319" y="667" type="line"/>
    </contour>
  </outline>
</glyph>
<glyph name="uni2079" format="2">
  <advance width="317"/>
  <unicode hex="2079"/>
  <outline>
    <contour>
      <point x="230" y="704" type="curve" smooth="yes"/>
      <point x="157" y="704"/>
      <point x="97" y="649"/>
      <point x="97" y="583" type="curve" smooth="yes"/>
      <point x="97" y="525"/>
      <point x="145" y="480"/>
      <point x="205" y="480" type="curve" smooth="yes"/>
      <point x="241" y="480"/>
      <point x="280" y="497"/>
      <point x="309" y="523" type="curve"/>
      <point x="293" y="438"/>
      <point x="234" y="377"/>
      <point x="162" y="377" type="curve" smooth="yes"/>
      <point x="139" y="377"/>
      <point x="113" y="386"/>
      <point x="93" y="400" type="curve"/>
      <point x="68" y="373" type="line"/>
      <point x="94" y="354"/>
      <point x="127" y="344"/>
      <point x="158" y="344" type="curve" smooth="yes"/>
      <point x="266" y="344"/>
      <point x="349" y="442"/>
      <point x="349" y="569" type="curve" smooth="yes"/>
      <point x="349" y="651"/>
      <point x="302" y="704"/>
    </contour>
    <contour>
      <point x="228" y="671" type="curve" smooth="yes"/>
      <point x="286" y="671"/>
      <point x="319" y="625"/>
      <point x="313" y="555" type="curve"/>
      <point x="284" y="527"/>
      <point x="249" y="511"/>
      <point x="214" y="511" type="curve" smooth="yes"/>
      <point x="167" y="511"/>
      <point x="133" y="541"/>
      <point x="133" y="584" type="curve" smooth="yes"/>
      <point x="133" y="632"/>
      <point x="176" y="671"/>
    </contour>
  </outline>
</glyph>
<glyph name="uni2080" format="2">
  <advance width="343"/>
  <unicode hex="2080"/>
  <outline>
    <contour>
      <point x="134" y="-5" type="curve" smooth="yes"/>
      <point x="226" y="-5"/>
      <point x="302" y="96"/>
      <point x="302" y="218" type="curve" smooth="yes"/>
      <point x="302" y="301"/>
      <point x="255" y="355"/>
      <point x="181" y="355" type="curve" smooth="yes"/>
      <point x="89" y="355"/>
      <point x="13" y="254"/>
      <point x="13" y="132" type="curve" smooth="yes"/>
      <point x="13" y="49"/>
      <point x="60" y="-5"/>
    </contour>
    <contour>
      <point x="139" y="29" type="curve" smooth="yes"/>
      <point x="83" y="29"/>
      <point x="49" y="68"/>
      <point x="49" y="131" type="curve" smooth="yes"/>
      <point x="49" y="233"/>
      <point x="108" y="321"/>
      <point x="176" y="321" type="curve" smooth="yes"/>
      <point x="232" y="321"/>
      <point x="266" y="282"/>
      <point x="266" y="219" type="curve" smooth="yes"/>
      <point x="266" y="117"/>
      <point x="207" y="29"/>
    </contour>
  </outline>
</glyph>
<glyph name="uni2083" format="2">
  <advance width="299"/>
  <unicode hex="2083"/>
  <outline>
    <contour>
      <point x="107" y="-5" type="curve" smooth="yes"/>
      <point x="181" y="-5"/>
      <point x="238" y="42"/>
      <point x="238" y="102" type="curve" smooth="yes"/>
      <point x="238" y="136"/>
      <point x="217" y="163"/>
      <point x="183" y="176" type="curve"/>
      <point x="231" y="191"/>
      <point x="260" y="225"/>
      <point x="260" y="266" type="curve" smooth="yes"/>
      <point x="260" y="317"/>
      <point x="216" y="355"/>
      <point x="155" y="355" type="curve" smooth="yes"/>
      <point x="115" y="355"/>
      <point x="74" y="340"/>
      <point x="37" y="312" type="curve"/>
      <point x="55" y="285" type="line"/>
      <point x="89" y="311"/>
      <point x="118" y="322"/>
      <point x="151" y="322" type="curve" smooth="yes"/>
      <point x="195" y="322"/>
      <point x="225" y="298"/>
      <point x="225" y="262" type="curve" smooth="yes"/>
      <point x="225" y="222"/>
      <point x="185" y="192"/>
      <point x="132" y="192" type="curve" smooth="yes"/>
      <point x="105" y="192" type="line"/>
      <point x="99" y="161" type="line"/>
      <point x="127" y="161" type="line" smooth="yes"/>
      <point x="172" y="161"/>
      <point x="203" y="136"/>
      <point x="203" y="100" type="curve" smooth="yes"/>
      <point x="203" y="59"/>
      <point x="162" y="28"/>
      <point x="109" y="28" type="curve" smooth="yes"/>
      <point x="64" y="28"/>
      <point x="30" y="44"/>
      <point x="7" y="76" type="curve"/>
      <point x="-21" y="54" type="line"/>
      <point x="9" y="15"/>
      <point x="51" y="-5"/>
    </contour>
  </outline>
</glyph>
<glyph name="uni2084" format="2">
  <advance width="312"/>
  <unicode hex="2084"/>
  <outline>
    <contour>
      <point x="165" y="0" type="line"/>
      <point x="200" y="0" type="line"/>
      <point x="220" y="93" type="line"/>
      <point x="262" y="93" type="line"/>
      <point x="269" y="126" type="line"/>
      <point x="227" y="126" type="line"/>
      <point x="276" y="350" type="line"/>
      <point x="236" y="350" type="line"/>
      <point x="-5" y="121" type="line"/>
      <point x="-11" y="93" type="line"/>
      <point x="185" y="93" type="line"/>
    </contour>
    <contour>
      <point x="49" y="126" type="line"/>
      <point x="230" y="298" type="line"/>
      <point x="192" y="126" type="line"/>
    </contour>
  </outline>
</glyph>
<glyph name="uni2085" format="2">
  <advance width="290"/>
  <unicode hex="2085"/>
  <outline>
    <contour>
      <point x="103" y="-5" type="curve" smooth="yes"/>
      <point x="185" y="-5"/>
      <point x="240" y="49"/>
      <point x="240" y="117" type="curve" smooth="yes"/>
      <point x="240" y="175"/>
      <point x="194" y="217"/>
      <point x="125" y="217" type="curve" smooth="yes"/>
      <point x="105" y="217"/>
      <point x="86" y="213"/>
      <point x="67" y="208" type="curve"/>
      <point x="95" y="317" type="line"/>
      <point x="265" y="317" type="line"/>
      <point x="271" y="350" type="line"/>
      <point x="68" y="350" type="line"/>
      <point x="26" y="184" type="line"/>
      <point x="45" y="175" type="line"/>
      <point x="70" y="183"/>
      <point x="93" y="186"/>
      <point x="115" y="186" type="curve" smooth="yes"/>
      <point x="172" y="186"/>
      <point x="205" y="159"/>
      <point x="205" y="115" type="curve" smooth="yes"/>
      <point x="205" y="66"/>
      <point x="163" y="28"/>
      <point x="105" y="28" type="curve" smooth="yes"/>
      <point x="61" y="28"/>
      <point x="31" y="44"/>
      <point x="6" y="75" type="curve"/>
      <point x="-20" y="51" type="line"/>
      <point x="10" y="12"/>
      <point x="57" y="-5"/>
    </contour>
  </outline>
</glyph>
<glyph name="uni2086" format="2">
  <advance width="317"/>
  <unicode hex="2086"/>
  <outline>
    <contour>
      <point x="131" y="-5" type="curve" smooth="yes"/>
      <point x="204" y="-5"/>
      <point x="264" y="50"/>
      <point x="264" y="116" type="curve" smooth="yes"/>
      <point x="264" y="174"/>
      <point x="216" y="219"/>
      <point x="156" y="219" type="curve" smooth="yes"/>
      <point x="120" y="219"/>
      <point x="81" y="202"/>
      <point x="52" y="176" type="curve"/>
      <point x="68" y="261"/>
      <point x="127" y="322"/>
      <point x="199" y="322" type="curve" smooth="yes"/>
      <point x="222" y="322"/>
      <point x="248" y="313"/>
      <point x="268" y="299" type="curve"/>
      <point x="293" y="326" type="line"/>
      <point x="267" y="345"/>
      <point x="234" y="355"/>
      <point x="203" y="355" type="curve" smooth="yes"/>
      <point x="95" y="355"/>
      <point x="12" y="257"/>
      <point x="12" y="130" type="curve" smooth="yes"/>
      <point x="12" y="48"/>
      <point x="59" y="-5"/>
    </contour>
    <contour>
      <point x="133" y="28" type="curve" smooth="yes"/>
      <point x="75" y="28"/>
      <point x="42" y="74"/>
      <point x="48" y="144" type="curve"/>
      <point x="77" y="172"/>
      <point x="112" y="188"/>
      <point x="147" y="188" type="curve" smooth="yes"/>
      <point x="194" y="188"/>
      <point x="228" y="158"/>
      <point x="228" y="115" type="curve" smooth="yes"/>
      <point x="228" y="67"/>
      <point x="185" y="28"/>
    </contour>
  </outline>
</glyph>
<glyph name="uni2088" format="2">
  <advance width="317"/>
  <unicode hex="2088"/>
  <outline>
    <contour>
      <point x="120" y="-5" type="curve" smooth="yes"/>
      <point x="195" y="-5"/>
      <point x="256" y="43"/>
      <point x="256" y="103" type="curve" smooth="yes"/>
      <point x="256" y="136"/>
      <point x="234" y="165"/>
      <point x="200" y="180" type="curve"/>
      <point x="246" y="193"/>
      <point x="277" y="230"/>
      <point x="277" y="269" type="curve" smooth="yes"/>
      <point x="277" y="318"/>
      <point x="230" y="355"/>
      <point x="168" y="355" type="curve" smooth="yes"/>
      <point x="101" y="355"/>
      <point x="46" y="311"/>
      <point x="46" y="257" type="curve" smooth="yes"/>
      <point x="46" y="228"/>
      <point x="62" y="203"/>
      <point x="89" y="189" type="curve"/>
      <point x="37" y="176"/>
      <point x="-2" y="135"/>
      <point x="-2" y="89" type="curve" smooth="yes"/>
      <point x="-2" y="34"/>
      <point x="49" y="-5"/>
    </contour>
    <contour>
      <point x="155" y="199" type="curve" smooth="yes"/>
      <point x="112" y="199"/>
      <point x="81" y="222"/>
      <point x="81" y="255" type="curve" smooth="yes"/>
      <point x="81" y="293"/>
      <point x="120" y="323"/>
      <point x="168" y="323" type="curve" smooth="yes"/>
      <point x="211" y="323"/>
      <point x="242" y="300"/>
      <point x="242" y="267" type="curve" smooth="yes"/>
      <point x="242" y="229"/>
      <point x="203" y="199"/>
    </contour>
    <contour>
      <point x="120" y="27" type="curve" smooth="yes"/>
      <point x="68" y="27"/>
      <point x="33" y="53"/>
      <point x="33" y="91" type="curve" smooth="yes"/>
      <point x="33" y="135"/>
      <point x="78" y="169"/>
      <point x="134" y="169" type="curve" smooth="yes"/>
      <point x="186" y="169"/>
      <point x="221" y="143"/>
      <point x="221" y="105" type="curve" smooth="yes"/>
      <point x="221" y="61"/>
      <point x="176" y="27"/>
    </contour>
  </outline>
</glyph>
<glyph name="Euro" format="2">
  <advance width="753"/>
  <unicode hex="20AC"/>
  <outline>
    <contour>
      <point x="431" y="-11" type="curve" smooth="yes"/>
      <point x="522" y="-11"/>
      <point x="611" y="26"/>
      <point x="678" y="93" type="curve"/>
      <point x="649" y="125" type="line"/>
      <point x="588" y="64"/>
      <point x="512" y="32"/>
      <point x="431" y="32" type="curve" smooth="yes"/>
      <point x="292" y="32"/>
      <point x="199" y="122"/>
      <point x="191" y="262" type="curve"/>
      <point x="418" y="262" type="line"/>
      <point x="439" y="303" type="line"/>
      <point x="192" y="303" type="line"/>
      <point x="193" y="336"/>
      <point x="198" y="367"/>
      <point x="207" y="397" type="curve"/>
      <point x="491" y="397" type="line"/>
      <point x="514" y="438" type="line"/>
      <point x="220" y="438" type="line"/>
      <point x="273" y="573"/>
      <point x="390" y="668"/>
      <point x="523" y="668" type="curve" smooth="yes"/>
      <point x="620" y="668"/>
      <point x="698" y="624"/>
      <point x="740" y="543" type="curve"/>
      <point x="778" y="563" type="line"/>
      <point x="730" y="657"/>
      <point x="635" y="711"/>
      <point x="523" y="711" type="curve" smooth="yes"/>
      <point x="365" y="711"/>
      <point x="228" y="597"/>
      <point x="172" y="438" type="curve"/>
      <point x="73" y="438" type="line"/>
      <point x="63" y="397" type="line"/>
      <point x="159" y="397" type="line"/>
      <point x="152" y="367"/>
      <point x="147" y="335"/>
      <point x="146" y="303" type="curve"/>
      <point x="44" y="303" type="line"/>
      <point x="35" y="262" type="line"/>
      <point x="145" y="262" type="line"/>
      <point x="153" y="98"/>
      <point x="266" y="-11"/>
    </contour>
  </outline>
</glyph>
<glyph name="uni2193" format="2">
  <advance width="598"/>
  <unicode hex="2193"/>
  <outline>
    <contour>
      <point x="319" y="700" type="line"/>
      <point x="279" y="700" type="line"/>
      <point x="279" y="40" type="line"/>
      <point x="104" y="276" type="line"/>
      <point x="73" y="256" type="line"/>
      <point x="298" y="-50" type="line"/>
      <point x="525" y="256" type="line"/>
      <point x="492" y="279" type="line"/>
      <point x="319" y="48" type="line"/>
    </contour>
  </outline>
</glyph>
<glyph name=".notdef" format="2">
  <advance width="514"/>
  <outline>
    <contour>
      <point x="61" y="-100" type="line"/>
      <point x="455" y="-100" type="line"/>
      <point x="455" y="750" type="line"/>
      <point x="61" y="750" type="line"/>
    </contour>
  </outline>
</glyph>
<glyph name="acutecomb" format="2">
  <anchor x="353" y="492" name="_top"/>
  <outline>
    <contour>
      <point x="347" y="596" type="line"/>
      <point x="393" y="596" type="line"/>
      <point x="532" y="706" type="line"/>
      <point x="464" y="706" type="line"/>
    </contour>
  </outline>
</glyph>
<glyph name="commaaccent" format="2">
  <advance width="600"/>
  <outline>
    <contour>
      <point x="138" y="-254" type="line"/>
      <point x="174" y="-254" type="line"/>
      <point x="261" y="-86" type="line"/>
      <point x="210" y="-86" type="line"/>
    </contour>
  </outline>
</glyph>
<glyph name="five.tab" format="2">
  <advance width="600"/>
  <outline>
    <contour>
      <point x="267" y="-11" type="curve" smooth="yes"/>
      <point x="423" y="-11"/>
      <point x="530" y="97"/>
      <point x="530" y="227" type="curve" smooth="yes"/>
      <point x="530" y="363"/>
      <point x="434" y="431"/>
      <point x="301" y="431" type="curve" smooth="yes"/>
      <point x="262" y="431"/>
      <point x="220" y="425"/>
      <point x="178" y="412" type="curve"/>
      <point x="241" y="658" type="line"/>
      <point x="587" y="658" type="line"/>
      <point x="596" y="700" type="line"/>
      <point x="208" y="700" type="line"/>
      <point x="125" y="376" type="line"/>
      <point x="146" y="363" type="line"/>
      <point x="199" y="380"/>
      <point x="248" y="390"/>
      <point x="293" y="390" type="curve" smooth="yes"/>
      <point x="415" y="390"/>
      <point x="485" y="331"/>
      <point x="485" y="230" type="curve" smooth="yes"/>
      <point x="485" y="118"/>
      <point x="394" y="31"/>
      <point x="268" y="31" type="curve" smooth="yes"/>
      <point x="179" y="31"/>
      <point x="111" y="63"/>
      <point x="61" y="128" type="curve"/>
      <point x="27" y="102" type="line"/>
      <point x="85" y="28"/>
      <point x="167" y="-11"/>
    </contour>
  </outline>
</glyph>
<glyph name="g.alt" format="2">
  <advance width="489"/>
  <note>
Version created Sun Jan 13 16:53:00 2019
</note>
  <anchor x="281" y="492" name="top"/>
  <outline>
    <contour>
      <point x="190" y="-214" type="curve" smooth="yes"/>
      <point x="329" y="-214"/>
      <point x="420" y="-159"/>
      <point x="420" y="-76" type="curve" smooth="yes"/>
      <point x="420" y="-22"/>
      <point x="382" y="11"/>
      <point x="314" y="19" type="curve" smooth="yes"/>
      <point x="151" y="39" type="line" smooth="yes"/>
      <point x="115" y="43"/>
      <point x="97" y="59"/>
      <point x="97" y="82" type="curve" smooth="yes"/>
      <point x="97" y="114"/>
      <point x="130" y="139"/>
      <point x="178" y="147" type="curve"/>
      <point x="198" y="140"/>
      <point x="220" y="136"/>
      <point x="242" y="136" type="curve" smooth="yes"/>
      <point x="360" y="136"/>
      <point x="455" y="224"/>
      <point x="455" y="334" type="curve" smooth="yes"/>
      <point x="455" y="371"/>
      <point x="442" y="406"/>
      <point x="420" y="434" type="curve"/>
      <point x="438" y="461"/>
      <point x="468" y="477"/>
      <point x="503" y="477" type="curve" smooth="yes"/>
      <point x="514" y="477"/>
      <point x="525" y="475"/>
      <point x="538" y="472" type="curve"/>
      <point x="544" y="519" type="line"/>
      <point x="536" y="520"/>
      <point x="526" y="521"/>
      <point x="517" y="521" type="curve" smooth="yes"/>
      <point x="469" y="521"/>
      <point x="423" y="493"/>
      <point x="403" y="453" type="curve"/>
      <point x="370" y="483"/>
      <point x="326" y="502"/>
      <point x="277" y="502" type="curve" smooth="yes"/>
      <point x="159" y="502"/>
      <point x="64" y="415"/>
      <point x="64" y="305" type="curve" smooth="yes"/>
      <point x="64" y="248"/>
      <point x="94" y="197"/>
      <point x="141" y="167" type="curve"/>
      <point x="88" y="152"/>
      <point x="50" y="114"/>
      <point x="50" y="75" type="curve" smooth="yes"/>
      <point x="50" y="52"/>
      <point x="61" y="32"/>
      <point x="79" y="18" type="curve"/>
      <point x="5" y="-6"/>
      <point x="-35" y="-47"/>
      <point x="-35" y="-98" type="curve" smooth="yes"/>
      <point x="-35" y="-169"/>
      <point x="53" y="-214"/>
    </contour>
    <contour>
      <point x="242" y="178" type="curve" smooth="yes"/>
      <point x="168" y="178"/>
      <point x="108" y="236"/>
      <point x="108" y="305" type="curve" smooth="yes"/>
      <point x="108" y="392"/>
      <point x="184" y="460"/>
      <point x="277" y="460" type="curve" smooth="yes"/>
      <point x="351" y="460"/>
      <point x="411" y="402"/>
      <point x="411" y="334" type="curve" smooth="yes"/>
      <point x="411" y="247"/>
      <point x="335" y="178"/>
    </contour>
    <contour>
      <point x="194" y="-174" type="curve" smooth="yes"/>
      <point x="81" y="-174"/>
      <point x="11" y="-141"/>
      <point x="11" y="-90" type="curve" smooth="yes"/>
      <point x="11" y="-49"/>
      <point x="52" y="-16"/>
      <point x="124" y="-1" type="curve"/>
      <point x="129" y="-2"/>
      <point x="134" y="-3"/>
      <point x="140" y="-4" type="curve" smooth="yes"/>
      <point x="304" y="-24" type="line" smooth="yes"/>
      <point x="351" y="-30"/>
      <point x="374" y="-51"/>
      <point x="374" y="-83" type="curve" smooth="yes"/>
      <point x="374" y="-136"/>
      <point x="300" y="-174"/>
    </contour>
  </outline>
</glyph>
<glyph name="gcommaaccent.alt" format="2">
  <advance width="489"/>
  <outline>
    <contour>
      <point x="384" y="757" type="line"/>
      <point x="348" y="757" type="line"/>
      <point x="261" y="589" type="line"/>
      <point x="312" y="589" type="line"/>
    </contour>
    <component base="g.alt"/>
  </outline>
</glyph>
<glyph name="gravecomb" format="2">
  <anchor x="353" y="492" name="_top"/>
  <outline>
    <contour>
      <point x="354" y="596" type="line"/>
      <point x="396" y="596" type="line"/>
      <point x="303" y="706" type="line"/>
      <point x="238" y="706" type="line"/>
    </contour>
  </outline>
</glyph>
<glyph name="seven.tab" format="2">
  <advance width="600"/>
  <outline>
    <contour>
      <point x="61" y="0" type="line"/>
      <point x="115" y="0" type="line"/>
      <point x="631" y="665" type="line"/>
      <point x="638" y="700" type="line"/>
      <point x="140" y="700" type="line"/>
      <point x="131" y="658" type="line"/>
      <point x="571" y="658" type="line"/>
    </contour>
  </outline>
</glyph>
<glyph name="uni0307" format="2">
  <anchor x="353" y="492" name="_top"/>
  <outline>
    <contour>
      <point x="380" y="603" type="curve" smooth="yes"/>
      <point x="403" y="603"/>
      <point x="421" y="621"/>
      <point x="421" y="645" type="curve" smooth="yes"/>
      <point x="421" y="664"/>
      <point x="406" y="679"/>
      <point x="388" y="679" type="curve" smooth="yes"/>
      <point x="365" y="679"/>
      <point x="347" y="661"/>
      <point x="347" y="638" type="curve" smooth="yes"/>
      <point x="347" y="618"/>
      <point x="362" y="603"/>
    </contour>
  </outline>
</glyph>
<glyph name="zero.tab" format="2">
  <advance width="600"/>
  <outline>
    <contour>
      <point x="267" y="-11" type="curve" smooth="yes"/>
      <point x="439" y="-11"/>
      <point x="578" y="200"/>
      <point x="578" y="461" type="curve" smooth="yes"/>
      <point x="578" y="622"/>
      <point x="506" y="711"/>
      <point x="378" y="711" type="curve" smooth="yes"/>
      <point x="206" y="711"/>
      <point x="67" y="500"/>
      <point x="67" y="239" type="curve" smooth="yes"/>
      <point x="67" y="78"/>
      <point x="139" y="-11"/>
    </contour>
    <contour>
      <point x="133" y="117" type="line"/>
      <point x="119" y="149"/>
      <point x="112" y="190"/>
      <point x="112" y="240" type="curve" smooth="yes"/>
      <point x="112" y="474"/>
      <point x="232" y="669"/>
      <point x="376" y="669" type="curve" smooth="yes"/>
      <point x="426" y="669"/>
      <point x="465" y="652"/>
      <point x="492" y="618" type="curve"/>
    </contour>
    <contour>
      <point x="269" y="31" type="curve" smooth="yes"/>
      <point x="219" y="31"/>
      <point x="181" y="47"/>
      <point x="155" y="80" type="curve"/>
      <point x="513" y="580" type="line"/>
      <point x="526" y="548"/>
      <point x="533" y="508"/>
      <point x="533" y="460" type="curve" smooth="yes"/>
      <point x="533" y="226"/>
      <point x="413" y="31"/>
    </contour>
  </outline>
</glyph>
